<?xml version="1.0" standalone="no"?>
<!DOCTYPE svg PUBLIC "-//W3C//DTD SVG 20010904//EN"
 "http://www.w3.org/TR/2001/REC-SVG-20010904/DTD/svg10.dtd">
<svg version="1.0" xmlns="http://www.w3.org/2000/svg"
 width="2000.000000pt" height="2000.000000pt" viewBox="0 0 2000.000000 2000.000000"
 preserveAspectRatio="xMidYMid meet">

<g transform="translate(0.000000,2000.000000) scale(0.100000,-0.100000)"
fill="#000000" stroke="none">
<path d="M9915 18660 c5 -9 4 -11 -4 -6 -6 4 -19 2 -28 -6 -14 -11 -16 -11 -8
1 7 11 -1 13 -41 7 -49 -6 -76 -11 -104 -19 -8 -2 -34 -8 -57 -12 -24 -4 -43
-12 -43 -17 0 -5 -4 -7 -10 -3 -5 3 -26 -2 -47 -11 -21 -10 -40 -18 -43 -19
-40 -10 -80 -29 -80 -36 0 -6 5 -7 12 -3 7 5 8 3 4 -5 -5 -7 -11 -10 -14 -7
-3 4 -19 -6 -36 -21 l-31 -28 30 34 30 34 -60 -32 c-76 -42 -165 -102 -165
-112 0 -4 -17 -17 -37 -30 -53 -31 -83 -60 -76 -72 3 -6 2 -7 -4 -4 -11 7 -76
-55 -71 -69 2 -5 0 -9 -3 -9 -4 0 -16 -9 -28 -19 -23 -21 -29 -52 -8 -40 6 4
3 -2 -7 -14 -21 -25 -35 -30 -16 -7 11 13 10 14 -2 10 -14 -5 -57 -69 -48 -71
3 0 -2 -8 -12 -17 -29 -30 -60 -86 -52 -98 4 -7 3 -9 -3 -6 -8 5 -33 -35 -39
-63 0 -3 -9 -23 -18 -44 -10 -22 -19 -49 -20 -60 -1 -12 -8 -32 -15 -44 -7
-13 -10 -26 -7 -29 3 -4 1 -12 -4 -19 -6 -6 -12 -27 -14 -45 -2 -19 -7 -41
-10 -50 -4 -8 -10 -65 -14 -125 -9 -120 5 -266 34 -362 10 -32 19 -63 20 -71
9 -49 80 -229 87 -224 6 3 7 1 4 -4 -4 -6 1 -32 10 -57 13 -34 22 -45 33 -41
11 5 12 3 3 -5 -8 -9 -7 -21 4 -49 8 -20 18 -38 22 -41 3 -3 7 -12 9 -20 8
-37 107 -230 116 -226 6 2 10 8 9 13 -1 5 5 10 13 10 11 0 10 -5 -5 -21 -21
-22 -19 -28 17 -86 9 -14 17 -27 17 -30 4 -23 18 -50 27 -50 6 0 9 -3 5 -6 -3
-3 10 -37 29 -75 27 -53 38 -67 52 -63 13 5 14 4 3 -4 -10 -8 -11 -14 -1 -32
10 -18 14 -20 21 -9 7 11 9 11 9 1 0 -7 5 -10 12 -6 7 4 8 3 4 -5 -4 -6 -12
-9 -17 -6 -5 4 -9 -1 -9 -9 0 -9 5 -16 12 -16 6 0 9 -3 5 -6 -7 -7 50 -103 73
-122 8 -8 9 -11 2 -7 -18 10 2 -30 31 -62 11 -13 17 -23 13 -23 -4 0 -2 -9 4
-21 8 -13 17 -18 28 -14 13 5 14 4 5 -6 -10 -10 -8 -21 9 -51 12 -21 26 -38
30 -38 5 0 7 -4 4 -8 -3 -5 3 -20 12 -33 9 -13 27 -42 39 -64 12 -22 26 -39
32 -38 6 2 7 -5 4 -14 -4 -11 -3 -14 5 -9 8 5 10 2 6 -8 -4 -9 1 -18 10 -22 9
-3 13 -10 10 -15 -3 -5 0 -9 7 -9 7 0 10 -3 6 -6 -6 -6 50 -104 59 -104 3 0 2
5 -2 12 -4 7 -3 8 5 4 6 -4 9 -12 5 -17 -5 -8 30 -76 46 -89 4 -3 9 -13 13
-23 4 -10 11 -16 16 -12 5 3 13 0 17 -6 4 -8 3 -9 -4 -5 -19 12 -14 -5 19 -56
17 -26 36 -48 42 -48 6 0 7 -3 4 -6 -9 -9 12 -46 23 -39 5 3 11 1 15 -5 3 -5
1 -10 -5 -10 -10 0 38 -82 53 -88 4 -2 7 -10 7 -18 0 -8 7 -17 15 -20 8 -4 13
-10 10 -15 -3 -4 4 -13 15 -19 11 -6 18 -15 15 -20 -3 -5 3 -18 15 -30 11 -11
20 -22 19 -25 -1 -11 8 -30 13 -25 10 11 213 328 321 501 521 841 858 1530
948 1938 38 177 22 414 -42 606 -146 435 -528 770 -979 860 -109 22 -346 32
-335 15z m-735 -326 c0 -8 -19 -13 -24 -6 -3 5 1 9 9 9 8 0 15 -2 15 -3z m790
-118 c0 -2 -7 -7 -16 -10 -8 -3 -12 -2 -9 4 6 10 25 14 25 6z m-933 -41 c0 -8
-4 -12 -9 -9 -5 3 -6 10 -3 15 9 13 12 11 12 -6z m513 -39 c-7 -7 -13 -7 -20
0 -6 6 -3 10 10 10 13 0 16 -4 10 -10z m94 3 c-7 -12 -41 -16 -41 -5 0 6 10
11 23 11 12 0 20 -3 18 -6z m-624 -23 c0 -3 -4 -8 -10 -11 -5 -3 -10 -1 -10 4
0 6 5 11 10 11 6 0 10 -2 10 -4z m475 -67 c-4 -5 -12 -9 -18 -8 -9 0 -8 2 1 6
6 2 9 10 6 15 -4 7 -2 8 5 4 6 -4 9 -12 6 -17z m-155 -145 c0 -8 -19 -13 -24
-6 -3 5 1 9 9 9 8 0 15 -2 15 -3z m-491 -17 c8 -10 7 -14 -2 -14 -8 0 -14 6
-14 14 0 7 1 13 2 13 2 0 8 -6 14 -13z m292 -249 c-11 -11 -13 -10 -7 0 4 7 2
21 -5 30 -12 15 -11 15 6 0 16 -15 17 -20 6 -30z m49 -12 c0 -2 -6 -9 -14 -15
-11 -9 -16 -9 -22 0 -4 7 -3 9 4 5 6 -3 13 -2 17 4 6 10 15 14 15 6z m604 -14
c3 -5 -1 -9 -9 -9 -8 0 -12 4 -9 9 3 4 7 8 9 8 2 0 6 -4 9 -8z m-64 -36 c0 -2
-8 -10 -17 -17 -16 -13 -17 -12 -4 4 13 16 21 21 21 13z m26 -22 c1 -9 0 -13
-4 -10 -3 4 -7 14 -8 22 -1 9 0 13 4 10 3 -4 7 -14 8 -22z m-22 -12 c3 -5 -1
-9 -9 -9 -8 0 -12 4 -9 9 3 4 7 8 9 8 2 0 6 -4 9 -8z m-63 -81 c-6 -10 -7 -22
-3 -26 4 -5 1 -5 -6 -1 -9 5 -9 12 -2 27 6 10 13 19 16 19 2 0 0 -8 -5 -19z
m-4 -233 c-3 -8 -6 -5 -6 6 -1 11 2 17 5 13 3 -3 4 -12 1 -19z m115 -132 c7 4
8 2 4 -4 -11 -18 -26 -14 -25 6 0 10 3 12 6 4 2 -6 10 -9 15 -6z m34 -12 c1
-9 0 -13 -4 -10 -3 4 -7 14 -8 22 -1 9 0 13 4 10 3 -4 7 -14 8 -22z m24 -18
c0 -2 -8 -10 -17 -17 -16 -13 -17 -12 -4 4 13 16 21 21 21 13z m-965 -118 c5
4 5 1 1 -6 -6 -9 -11 -10 -20 -3 -7 6 -17 7 -21 3 -5 -4 -5 -1 -1 6 6 9 11 10
20 3 7 -6 17 -7 21 -3z m500 -187 c3 -5 2 -12 -3 -15 -5 -3 -9 1 -9 9 0 17 3
19 12 6z m60 -70 c-6 -5 -25 10 -25 20 0 5 6 4 14 -3 8 -7 12 -15 11 -17z
m320 -201 c3 -6 -1 -7 -9 -4 -18 7 -21 14 -7 14 6 0 13 -4 16 -10z m-565 -294
c0 -2 -8 -10 -17 -17 -16 -13 -17 -12 -4 4 13 16 21 21 21 13z m84 -124 c3 -5
-1 -9 -9 -9 -8 0 -12 4 -9 9 3 4 7 8 9 8 2 0 6 -4 9 -8z m531 -961 c-9 -8 -36
-10 -30 -2 2 4 11 8 20 8 8 0 13 -3 10 -6z m94 -154 c8 -10 7 -14 -2 -14 -8 0
-14 6 -14 14 0 7 1 13 2 13 2 0 8 -6 14 -13z m78 -112 c0 -8 -4 -12 -9 -9 -5
3 -6 10 -3 15 9 13 12 11 12 -6z"/>
<path d="M5959 17464 c-35 -25 -70 -49 -78 -53 -11 -7 69 -129 343 -521 l356
-513 -22 -24 c-12 -12 -25 -23 -30 -23 -11 0 -150 -99 -165 -118 -7 -9 -13
-12 -13 -8 0 4 -27 -12 -60 -35 -33 -23 -57 -45 -55 -50 3 -4 0 -11 -6 -15 -8
-4 -9 -3 -5 4 12 20 0 14 -58 -27 -31 -21 -52 -42 -48 -46 4 -5 2 -5 -5 -1 -7
4 -20 -1 -30 -11 -10 -10 -31 -24 -46 -32 -15 -8 -27 -18 -27 -23 0 -4 -6 -8
-14 -8 -8 0 -28 -14 -45 -31 -17 -17 -31 -28 -31 -24 0 3 -34 -18 -75 -46 -41
-29 -75 -57 -75 -63 0 -5 -3 -6 -7 -3 -3 4 -20 -4 -37 -17 -17 -13 -59 -42
-93 -66 -35 -24 -63 -47 -63 -51 0 -5 -6 -8 -12 -7 -7 2 -12 -4 -10 -12 5 -24
0 -17 -338 470 -178 256 -338 486 -357 512 l-34 48 -74 -50 c-41 -27 -76 -54
-80 -60 -3 -5 154 -240 350 -521 196 -282 354 -512 353 -513 -30 -19 -63 -50
-63 -59 0 -7 -8 -11 -18 -9 -18 3 -50 -21 -41 -31 3 -3 0 -8 -7 -13 -8 -4 -10
-3 -5 4 14 23 -10 11 -83 -43 -72 -52 -137 -128 -125 -146 3 -5 1 -9 -5 -9
-13 0 -31 -91 -24 -126 6 -33 11 -63 12 -82 1 -7 6 -10 13 -6 7 4 8 3 4 -4 -9
-15 21 -72 39 -72 7 0 17 -5 21 -12 5 -7 3 -8 -6 -3 -21 13 -9 -7 85 -143 l90
-130 65 -6 c73 -8 114 -17 212 -48 l67 -21 28 33 c15 18 31 37 34 43 6 9 369
-288 369 -302 -1 -3 -14 -21 -30 -40 l-28 -33 35 -56 c145 -226 179 -477 106
-787 -3 -13 15 -48 54 -102 32 -46 60 -83 63 -82 3 0 34 38 69 85 158 209 413
478 634 669 286 247 632 477 975 649 130 65 416 186 547 231 61 21 112 40 113
41 4 3 -196 294 -208 304 -3 3 -16 22 -29 43 -13 21 -28 43 -35 50 -6 6 -22
29 -35 50 -13 21 -27 34 -34 30 -6 -4 -8 0 -4 10 3 10 2 17 -3 17 -6 0 -10 6
-10 14 0 8 -10 22 -22 30 -12 9 -19 16 -15 16 4 0 0 11 -9 25 -9 14 -21 22
-27 18 -6 -3 -7 -1 -3 6 10 15 -13 43 -27 34 -6 -3 -7 -1 -3 5 4 7 -26 59 -69
122 -68 98 -79 109 -93 98 -15 -12 -16 -11 -3 5 11 14 11 20 0 35 -8 9 -18 20
-24 24 -5 4 -10 11 -10 16 0 15 -106 162 -117 162 -6 0 -8 3 -5 6 6 6 -110
182 -140 212 -8 8 -20 27 -28 43 -9 16 -20 29 -26 29 -6 0 -8 4 -4 9 3 6 0 13
-7 18 -7 4 -20 20 -28 35 -8 15 -49 76 -92 136 -53 76 -91 119 -123 140 -26
17 -52 29 -56 26 -5 -3 -9 0 -9 6 0 7 -7 10 -15 7 -8 -4 -17 -2 -20 3 -4 6
-37 10 -75 10 -52 0 -73 -4 -86 -17 -10 -10 -19 -17 -21 -15 -10 8 -36 -1 -53
-18 -11 -11 -23 -21 -27 -22 -20 -3 -82 -51 -77 -59 3 -5 -2 -6 -10 -3 -9 3
-16 2 -16 -2 0 -5 -23 -22 -50 -38 -27 -16 -47 -32 -45 -36 2 -3 -4 -6 -13 -7
-12 -1 -131 162 -371 508 -195 280 -357 509 -360 509 -4 0 -36 -21 -72 -46z
m1332 -811 c11 -15 11 -16 -1 -6 -11 10 -17 10 -29 0 -14 -11 -14 -10 -2 6 7
9 15 17 16 17 1 0 9 -8 16 -17z m-331 -49 c0 -8 -19 -13 -24 -6 -3 5 1 9 9 9
8 0 15 -2 15 -3z m451 -81 c13 -16 12 -17 -3 -4 -17 13 -22 21 -14 21 2 0 10
-8 17 -17z m-537 -1 c2 -4 -5 -9 -17 -9 -17 -2 -19 0 -7 7 18 12 18 12 24 2z
m597 -58 c2 2 5 -7 5 -20 1 -14 1 -24 0 -22 -33 52 -38 62 -24 51 8 -7 17 -11
19 -9z m-847 -116 c-3 -4 -11 -8 -17 -7 -9 0 -9 2 0 5 7 3 9 13 6 22 -4 14 -3
14 5 2 6 -8 8 -18 6 -22z m644 -83 c-3 -3 -9 2 -12 12 -6 14 -5 15 5 6 7 -7
10 -15 7 -18z m362 -29 c0 -2 -8 -10 -17 -17 -16 -13 -17 -12 -4 4 13 16 21
21 21 13z m-301 -29 c8 -10 7 -14 -2 -14 -8 0 -14 6 -14 14 0 7 1 13 2 13 2 0
8 -6 14 -13z m336 -7 c-3 -5 -12 -10 -18 -10 -7 0 -6 4 3 10 19 12 23 12 15 0z
m-1271 -32 c-3 -5 -12 -4 -20 3 -7 6 -11 15 -8 21 3 5 12 4 20 -3 7 -6 11 -15
8 -21z m962 0 c3 -4 -1 -5 -10 -4 -8 1 -18 5 -22 8 -3 4 1 5 10 4 8 -1 18 -5
22 -8z m-362 -67 c3 -5 -1 -14 -8 -20 -12 -10 -14 -9 -11 6 2 10 4 19 4 21 2
5 10 2 15 -7z m743 -8 c0 -9 -4 -10 -14 -2 -7 6 -13 12 -13 14 0 1 6 2 13 2 8
0 14 -6 14 -14z m-921 -22 c-8 -12 19 -33 29 -23 5 4 5 1 1 -6 -6 -11 -12 -10
-27 4 -16 14 -18 34 -3 34 3 0 3 -4 0 -9z m54 -86 c14 -19 14 -19 -2 -6 -10 7
-18 18 -18 24 0 6 1 8 3 6 1 -2 9 -13 17 -24z m614 -1 c3 -8 2 -12 -4 -9 -6 3
-10 10 -10 16 0 14 7 11 14 -7z m-543 -21 c13 -16 12 -17 -3 -4 -17 13 -22 21
-14 21 2 0 10 -8 17 -17z m-36 -23 c10 -11 16 -20 13 -20 -3 0 -13 9 -23 20
-10 11 -16 20 -13 20 3 0 13 -9 23 -20z m175 16 c0 -2 -8 -10 -17 -17 -16 -13
-17 -12 -4 4 13 16 21 21 21 13z m468 -60 c1 -15 -1 -17 -7 -8 -5 8 -12 13
-17 12 -5 -1 -10 3 -12 9 -2 5 5 9 15 8 11 0 20 -9 21 -21z m-1628 -30 c0 -2
-8 -10 -17 -17 -16 -13 -17 -12 -4 4 13 16 21 21 21 13z m1259 -50 c-2 -2 -13
8 -23 22 l-19 27 24 -22 c12 -12 21 -24 18 -27z m422 -23 c13 -16 12 -17 -3
-4 -17 13 -22 21 -14 21 2 0 10 -8 17 -17z m-410 -10 c13 -16 12 -17 -3 -4
-17 13 -22 21 -14 21 2 0 10 -8 17 -17z m536 -118 c0 -6 -6 -12 -12 -12 -6 0
-12 6 -12 12 0 6 6 12 12 12 6 0 12 -6 12 -12z m313 1 c0 -2 -8 -10 -17 -17
-16 -13 -17 -12 -4 4 13 16 21 21 21 13z m-1496 -43 l17 -28 -19 22 c-11 12
-23 19 -27 15 -5 -4 -5 -1 -1 6 10 17 11 16 30 -15z m147 -6 c-10 -9 -11 -8
-5 6 3 10 9 15 12 12 3 -3 0 -11 -7 -18z m1373 5 c3 -5 -1 -9 -9 -9 -8 0 -12
4 -9 9 3 4 7 8 9 8 2 0 6 -4 9 -8z m-1436 -47 c-3 -3 -9 2 -12 12 -6 14 -5 15
5 6 7 -7 10 -15 7 -18z m-1113 -14 c3 -5 2 -12 -3 -15 -5 -3 -9 1 -9 9 0 17 3
19 12 6z m1262 -16 c0 -8 -4 -12 -9 -9 -5 3 -6 10 -3 15 9 13 12 11 12 -6z
m-721 -37 c3 -4 -1 -5 -10 -4 -8 1 -18 5 -22 8 -3 4 1 5 10 4 8 -1 18 -5 22
-8z m-35 -15 c13 -16 12 -17 -3 -4 -10 7 -18 15 -18 17 0 8 8 3 21 -13z m1387
-7 c0 -19 -3 -22 -13 -13 -8 8 -9 15 -1 24 6 7 12 12 12 13 1 0 2 -11 2 -24z
m-149 -9 c0 -8 -2 -8 -6 1 -4 9 -8 10 -18 2 -10 -8 -15 -8 -21 1 -4 7 -3 9 4
5 6 -3 13 -2 17 4 8 13 25 3 24 -13z m5 -29 c-3 -4 -11 -5 -19 -1 -21 7 -19
12 4 10 11 0 18 -5 15 -9z m130 4 c3 -5 -1 -9 -9 -9 -8 0 -12 4 -9 9 3 4 7 8
9 8 2 0 6 -4 9 -8z m-710 -28 c3 -8 2 -12 -4 -9 -6 3 -10 10 -10 16 0 14 7 11
14 -7z m1215 -2 c7 -14 6 -19 -4 -19 -7 0 -11 7 -7 15 4 11 1 13 -8 7 -9 -5
-11 -4 -6 3 10 16 14 15 25 -6z m-1758 -19 c13 -16 12 -17 -3 -4 -17 13 -22
21 -14 21 2 0 10 -8 17 -17z m-36 -23 c10 -11 16 -20 13 -20 -3 0 -13 9 -23
20 -10 11 -16 20 -13 20 3 0 13 -9 23 -20z m649 -31 c3 -3 -5 -5 -19 -5 -13 0
-22 3 -19 7 4 8 30 6 38 -2z m1199 -16 c-4 -10 -9 -10 -18 -3 -6 5 -16 6 -20
2 -5 -4 -6 -2 -2 3 8 16 46 13 40 -2z m-1193 -24 c0 -5 -4 -9 -8 -9 -5 0 -9 7
-9 15 0 8 4 12 9 9 4 -3 8 -9 8 -15z m174 3 c3 -5 -1 -9 -9 -9 -8 0 -12 4 -9
9 3 4 7 8 9 8 2 0 6 -4 9 -8z m614 -17 c-3 -3 -9 2 -12 12 -6 14 -5 15 5 6 7
-7 10 -15 7 -18z m393 8 c13 -16 12 -17 -3 -4 -17 13 -22 21 -14 21 2 0 10 -8
17 -17z m-1747 -44 c-3 -5 -10 -7 -15 -3 -5 3 -7 10 -3 15 3 5 10 7 15 3 5 -3
7 -10 3 -15z m191 1 c16 -17 16 -20 3 -15 -9 4 -19 13 -22 21 -7 19 -2 18 19
-6z m1186 3 c12 -16 12 -17 -2 -6 -9 7 -20 9 -24 5 -5 -4 -5 -1 -1 6 9 16 11
15 27 -5z m-2161 2 c0 -2 -6 -8 -13 -14 -10 -8 -14 -7 -14 2 0 8 6 14 14 14 7
0 13 -1 13 -2z m1391 -32 c13 -16 12 -17 -3 -4 -17 13 -22 21 -14 21 2 0 10
-8 17 -17z m-410 -10 c13 -16 12 -17 -3 -4 -10 7 -18 15 -18 17 0 8 8 3 21
-13z m1215 -19 c2 -11 -1 -12 -10 -5 -7 6 -17 7 -22 3 -4 -4 -2 1 5 11 15 19
24 16 27 -9z m444 -9 c0 -2 -6 -8 -13 -14 -10 -8 -14 -7 -14 2 0 8 6 14 14 14
7 0 13 -1 13 -2z m-586 -35 c-6 -6 -10 -3 -10 10 0 13 4 16 10 10 7 -7 7 -13
0 -20z m914 -12 c-6 -16 -21 -14 -24 4 -1 11 3 15 12 11 8 -3 13 -10 12 -15z
m-754 -14 c3 -8 2 -12 -4 -9 -6 3 -10 10 -10 16 0 14 7 11 14 -7z m-709 -23
c3 -5 2 -12 -3 -15 -5 -3 -9 1 -9 9 0 17 3 19 12 6z m1190 -1 c3 -5 1 -10 -4
-10 -6 0 -11 5 -11 10 0 6 2 10 4 10 3 0 8 -4 11 -10z m-404 -27 c13 -16 12
-17 -3 -4 -17 13 -22 21 -14 21 2 0 10 -8 17 -17z m-537 -94 c-3 -5 -10 -7
-15 -3 -5 3 -7 10 -3 15 3 5 10 7 15 3 5 -3 7 -10 3 -15z m420 -21 c-9 -14
-23 1 -21 23 1 19 2 19 14 3 7 -9 10 -21 7 -26z m-1607 17 c0 -8 -4 -12 -9 -9
-5 3 -6 10 -3 15 9 13 12 11 12 -6z m607 -3 c3 -5 -1 -9 -9 -9 -8 0 -12 4 -9
9 3 4 7 8 9 8 2 0 6 -4 9 -8z m-125 -65 c0 -8 -2 -8 -6 1 -4 9 -8 10 -18 2
-10 -8 -15 -8 -21 1 -4 7 -3 9 4 5 6 -3 13 -2 17 4 8 13 25 3 24 -13z m148
-20 c-4 -13 -37 -18 -37 -5 0 6 7 7 16 4 12 -5 15 -2 10 9 -3 10 -2 13 5 10 5
-4 8 -12 6 -18z m1217 2 c-3 -5 -10 -7 -15 -3 -5 3 -7 10 -3 15 3 5 10 7 15 3
5 -3 7 -10 3 -15z m-590 2 c3 -5 -1 -14 -8 -20 -12 -10 -14 -9 -11 6 2 10 4
19 4 21 2 5 10 2 15 -7z m-770 -13 c-3 -4 -11 -5 -19 -1 -21 7 -19 12 4 10 11
0 18 -5 15 -9z m16 -24 c0 -8 -19 -13 -24 -6 -3 5 1 9 9 9 8 0 15 -2 15 -3z
m627 -44 c-3 -11 0 -20 6 -20 6 0 8 -3 4 -6 -11 -12 -25 6 -20 26 3 11 8 20
10 20 3 0 3 -9 0 -20z m203 -26 c0 -8 -19 -13 -24 -6 -3 5 1 9 9 9 8 0 15 -2
15 -3z m-770 -20 c0 -8 -19 -13 -24 -6 -3 5 1 9 9 9 8 0 15 -2 15 -3z m641
-11 c13 -16 12 -17 -3 -4 -10 7 -18 15 -18 17 0 8 8 3 21 -13z m-437 -35 c-4
-13 -2 -18 4 -14 5 3 16 -2 23 -12 12 -15 12 -15 -1 -5 -8 6 -19 11 -25 10 -5
-1 -10 10 -10 25 -1 15 3 24 7 21 5 -2 6 -14 2 -25z m401 12 c10 -11 16 -20
13 -20 -3 0 -13 9 -23 20 -10 11 -16 20 -13 20 3 0 13 -9 23 -20z m251 -77
c-10 -11 -19 -7 -22 10 -2 15 0 16 12 6 8 -6 12 -14 10 -16z m-591 -2 c3 -5 2
-12 -3 -15 -5 -3 -9 1 -9 9 0 17 3 19 12 6z m429 -29 c3 -5 -1 -9 -9 -9 -8 0
-12 4 -9 9 3 4 7 8 9 8 2 0 6 -4 9 -8z m-534 -86 c0 -3 -4 -8 -10 -11 -5 -3
-10 -1 -10 4 0 6 5 11 10 11 6 0 10 -2 10 -4z m69 -99 c8 -10 7 -14 -2 -14 -8
0 -14 6 -14 14 0 7 1 13 2 13 2 0 8 -6 14 -13z m27 -39 c3 -4 -1 -5 -10 -4 -8
1 -18 5 -22 8 -3 4 1 5 10 4 8 -1 18 -5 22 -8z m72 -33 c-3 -3 -9 2 -12 12 -6
14 -5 15 5 6 7 -7 10 -15 7 -18z m116 17 c3 -5 -1 -9 -9 -9 -8 0 -12 4 -9 9 3
4 7 8 9 8 2 0 6 -4 9 -8z"/>
<path d="M14448 17191 c-32 -43 -58 -81 -58 -85 0 -5 514 -392 987 -742 l111
-83 57 75 c30 41 58 80 60 87 4 10 -1056 811 -1089 823 -6 2 -37 -32 -68 -75z"/>
<path d="M13191 17148 c-18 -55 -31 -101 -29 -103 6 -5 923 -305 933 -305 18
1 137 170 123 175 -7 3 -234 79 -504 169 l-491 163 -32 -99z"/>
<path d="M5816 17172 c-3 -5 1 -9 9 -9 8 0 12 4 9 9 -3 4 -7 8 -9 8 -2 0 -6
-4 -9 -8z"/>
<path d="M5795 17140 c-3 -6 1 -7 9 -4 18 7 21 14 7 14 -6 0 -13 -4 -16 -10z"/>
<path d="M5110 16673 c0 -5 -13 -14 -30 -20 -36 -14 -37 -29 -4 -68 15 -16 24
-25 20 -19 -9 19 14 86 29 80 8 -3 12 2 11 12 -3 16 -26 30 -26 15z"/>
<path d="M12990 16569 c0 -5 5 -7 10 -4 6 3 10 8 10 11 0 2 -4 4 -10 4 -5 0
-10 -5 -10 -11z"/>
<path d="M12936 16542 c-2 -4 -1 -14 3 -21 6 -10 10 -9 14 3 6 16 -8 32 -17
18z"/>
<path d="M13102 16511 c2 -8 -8 -17 -22 -22 -23 -7 -23 -7 6 -6 30 1 39 16 20
34 -4 4 -6 2 -4 -6z"/>
<path d="M12933 16485 c0 -8 4 -12 9 -9 5 3 6 10 3 15 -9 13 -12 11 -12 -6z"/>
<path d="M12936 16448 c3 -5 10 -6 15 -3 13 9 11 12 -6 12 -8 0 -12 -4 -9 -9z"/>
<path d="M13147 16453 c-10 -9 -9 -23 1 -23 5 0 9 7 9 15 0 17 -1 18 -10 8z"/>
<path d="M12885 16441 c-3 -5 -1 -12 5 -16 6 -4 8 -11 5 -16 -3 -5 0 -6 8 -3
9 3 13 13 10 25 -6 20 -18 25 -28 10z"/>
<path d="M13181 16437 c2 -1 13 -9 24 -17 19 -14 19 -14 6 3 -7 9 -18 17 -24
17 -6 0 -8 -1 -6 -3z"/>
<path d="M13234 16418 c-4 -7 -4 -10 1 -6 4 4 15 2 24 -5 14 -11 14 -10 2 6
-16 20 -18 21 -27 5z"/>
<path d="M13285 16380 c3 -5 8 -10 11 -10 2 0 4 5 4 10 0 6 -5 10 -11 10 -5 0
-7 -4 -4 -10z"/>
<path d="M12840 16356 c0 -2 8 -10 18 -17 15 -13 16 -12 3 4 -13 16 -21 21
-21 13z"/>
<path d="M13293 16353 c4 -6 2 -13 -5 -15 -8 -3 -6 -6 4 -10 17 -7 19 15 3 29
-4 4 -5 3 -2 -4z"/>
<path d="M13430 16290 c-9 -6 -10 -10 -3 -10 6 0 15 5 18 10 8 12 4 12 -15 0z"/>
<path d="M12780 16241 c0 -6 4 -12 8 -15 5 -3 9 1 9 9 0 8 -4 15 -9 15 -4 0
-8 -4 -8 -9z"/>
<path d="M13520 16246 c0 -2 7 -7 16 -10 8 -3 12 -2 9 4 -6 10 -25 14 -25 6z"/>
<path d="M13615 16181 c-3 -5 0 -13 6 -17 7 -4 9 -3 5 4 -3 5 0 13 6 15 9 4
10 6 1 6 -6 1 -14 -3 -18 -8z"/>
<path d="M13683 16097 c0 -8 6 -14 14 -14 15 0 12 19 -3 24 -6 2 -11 -3 -11
-10z"/>
<path d="M13150 16061 c0 -6 4 -13 10 -16 6 -3 7 1 4 9 -7 18 -14 21 -14 7z"/>
<path d="M13814 16059 c-3 -6 -2 -15 3 -20 5 -5 9 -1 9 11 0 23 -2 24 -12 9z"/>
<path d="M12706 16023 c-6 -14 -5 -15 5 -6 7 7 10 15 7 18 -3 3 -9 -2 -12 -12z"/>
<path d="M13176 16032 c-3 -5 1 -9 9 -9 8 0 12 4 9 9 -3 4 -7 8 -9 8 -2 0 -6
-4 -9 -8z"/>
<path d="M13896 16012 c-3 -5 1 -9 9 -9 8 0 12 4 9 9 -3 4 -7 8 -9 8 -2 0 -6
-4 -9 -8z"/>
<path d="M13973 15958 c-2 -16 1 -18 10 -9 7 7 8 14 1 21 -6 6 -10 2 -11 -12z"/>
<path d="M12575 15950 c-3 -6 1 -7 9 -4 18 7 21 14 7 14 -6 0 -13 -4 -16 -10z"/>
<path d="M13175 15922 c-11 -16 -13 -22 -4 -15 10 8 19 9 27 3 8 -7 9 -7 3 1
-5 6 -7 18 -4 25 8 21 0 16 -22 -14z"/>
<path d="M14056 15915 c4 -8 11 -15 16 -15 6 0 5 6 -2 15 -7 8 -14 15 -16 15
-2 0 -1 -7 2 -15z"/>
<path d="M13356 15909 c2 -4 -2 -10 -8 -12 -8 -4 -7 -6 3 -6 9 -1 19 5 22 12
3 8 -1 14 -9 14 -7 0 -11 -4 -8 -8z"/>
<path d="M13387 15906 c-4 -10 -1 -13 8 -9 8 3 12 9 9 14 -7 12 -11 11 -17 -5z"/>
<path d="M14008 15893 c7 -3 16 -2 19 1 4 3 -2 6 -13 5 -11 0 -14 -3 -6 -6z"/>
<path d="M14051 15854 c0 -11 3 -14 6 -6 3 7 2 16 -1 19 -3 4 -6 -2 -5 -13z"/>
<path d="M13430 15819 c-7 -11 -9 -23 -6 -27 3 -3 6 0 6 6 0 6 7 18 16 26 8 9
11 16 5 16 -6 0 -15 -9 -21 -21z"/>
<path d="M13535 15820 c-3 -6 1 -7 9 -4 18 7 21 14 7 14 -6 0 -13 -4 -16 -10z"/>
<path d="M14170 15805 c-13 -16 -6 -35 13 -34 9 0 9 2 0 6 -7 2 -13 9 -13 14
0 6 4 8 8 5 5 -3 9 1 9 9 0 19 -2 19 -17 0z"/>
<path d="M13225 15800 c3 -5 8 -10 11 -10 2 0 4 5 4 10 0 6 -5 10 -11 10 -5 0
-7 -4 -4 -10z"/>
<path d="M14214 15798 c-12 -19 -14 -39 -3 -32 5 3 7 9 4 14 -3 4 1 10 7 13 7
2 10 7 7 11 -4 4 -11 1 -15 -6z"/>
<path d="M12480 15791 c0 -6 4 -13 10 -16 6 -3 7 1 4 9 -7 18 -14 21 -14 7z"/>
<path d="M13430 15761 c0 -6 4 -12 8 -15 5 -3 9 1 9 9 0 8 -4 15 -9 15 -4 0
-8 -4 -8 -9z"/>
<path d="M12446 15745 c-3 -8 0 -17 6 -21 6 -4 8 -3 4 4 -3 5 -1 12 6 14 8 3
9 6 1 11 -6 4 -13 0 -17 -8z"/>
<path d="M13145 15750 c-8 -13 5 -61 15 -55 7 4 7 27 0 45 -1 3 -2 8 -1 13 1
10 -7 9 -14 -3z"/>
<path d="M13730 15729 c0 -5 5 -7 10 -4 6 3 10 8 10 11 0 2 -4 4 -10 4 -5 0
-10 -5 -10 -11z"/>
<path d="M14320 15732 c0 -4 11 -8 25 -8 28 0 24 8 -5 13 -11 2 -20 -1 -20 -5z"/>
<path d="M13633 15709 c-2 -23 3 -25 10 -4 4 8 3 16 -1 19 -4 3 -9 -4 -9 -15z"/>
<path d="M13125 15701 c-3 -5 -2 -12 3 -15 5 -3 9 1 9 9 0 17 -3 19 -12 6z"/>
<path d="M13239 15693 c-13 -16 -12 -17 4 -4 9 7 17 15 17 17 0 8 -8 3 -21
-13z"/>
<path d="M13276 15693 c-4 -9 -4 -14 0 -10 4 4 17 -1 28 -10 l21 -18 -20 25
c-11 14 -20 26 -21 28 -1 2 -5 -5 -8 -15z"/>
<path d="M13704 15699 c-5 -8 -3 -9 6 -4 7 4 16 2 22 -6 8 -12 9 -12 6 0 -6
20 -24 25 -34 10z"/>
<path d="M13561 15690 c-9 -5 -4 -7 13 -7 29 0 32 2 13 10 -8 3 -20 2 -26 -3z"/>
<path d="M13393 15655 c0 -8 4 -12 9 -9 5 3 6 10 3 15 -9 13 -12 11 -12 -6z"/>
<path d="M13460 15650 c-9 -6 -10 -10 -3 -10 6 0 15 5 18 10 8 12 4 12 -15 0z"/>
<path d="M13310 15633 c0 -6 8 -17 18 -24 16 -13 16 -13 2 6 -8 11 -16 22 -17
24 -2 2 -3 0 -3 -6z"/>
<path d="M13575 15630 c3 -5 8 -10 11 -10 2 0 4 5 4 10 0 6 -5 10 -11 10 -5 0
-7 -4 -4 -10z"/>
<path d="M14405 15621 c-6 -11 13 -26 22 -17 4 3 1 6 -6 6 -7 0 -9 5 -6 10 3
6 4 10 1 10 -3 0 -7 -4 -11 -9z"/>
<path d="M14489 15613 c-12 -16 -12 -17 2 -6 12 10 18 10 28 0 10 -9 11 -8 6
6 -4 9 -11 17 -15 17 -4 0 -14 -8 -21 -17z"/>
<path d="M12366 15608 c3 -5 -2 -19 -13 -31 -12 -14 -13 -18 -2 -9 9 6 18 9
21 6 3 -2 8 6 10 19 3 15 0 24 -8 24 -7 0 -11 -4 -8 -9z"/>
<path d="M13366 15594 c-4 -9 -4 -19 -1 -22 2 -3 7 3 11 12 4 9 4 19 1 22 -2
3 -7 -3 -11 -12z"/>
<path d="M13884 15598 c-4 -7 -4 -10 1 -6 4 4 15 2 24 -5 14 -11 14 -10 2 6
-16 20 -18 21 -27 5z"/>
<path d="M13583 15582 c10 -10 14 -22 10 -27 -5 -4 -2 -5 5 -1 11 6 10 12 -4
27 -9 10 -19 19 -22 19 -3 0 2 -8 11 -18z"/>
<path d="M13956 15586 c7 -19 20 -21 30 -3 4 6 4 9 -1 5 -4 -4 -14 -3 -22 4
-11 8 -12 7 -7 -6z"/>
<path d="M14580 15586 c0 -3 9 -10 20 -16 11 -6 20 -8 20 -6 0 3 -9 10 -20 16
-11 6 -20 8 -20 6z"/>
<path d="M13943 15552 c10 -11 13 -22 7 -32 -10 -16 -3 -33 10 -25 5 3 6 13 3
22 -5 12 -3 14 8 8 8 -5 3 4 -10 18 -14 15 -27 27 -29 27 -3 0 2 -8 11 -18z"/>
<path d="M13396 15548 c3 -5 10 -6 15 -3 13 9 11 12 -6 12 -8 0 -12 -4 -9 -9z"/>
<path d="M14573 15545 c0 -8 4 -12 9 -9 5 3 6 10 3 15 -9 13 -12 11 -12 -6z"/>
<path d="M12340 15540 c-9 -6 -10 -10 -3 -10 6 0 15 5 18 10 8 12 4 12 -15 0z"/>
<path d="M15143 15543 c-7 -3 -13 -14 -13 -24 0 -11 -4 -18 -9 -14 -6 3 -15
-4 -21 -15 -9 -17 -8 -20 12 -19 13 0 17 3 11 6 -7 2 -13 9 -13 14 0 6 5 7 10
4 6 -3 13 2 17 12 4 10 11 21 17 25 13 9 5 17 -11 11z"/>
<path d="M14122 15475 c-22 -22 -23 -23 -3 -18 12 3 21 10 21 15 0 5 4 6 10 3
6 -3 7 1 4 9 -3 9 -7 16 -8 15 0 -1 -11 -12 -24 -24z"/>
<path d="M12279 15473 c-13 -16 -12 -17 4 -4 9 7 17 15 17 17 0 8 -8 3 -21
-13z"/>
<path d="M13537 15469 c7 -7 15 -10 18 -7 3 3 -2 9 -12 12 -14 6 -15 5 -6 -5z"/>
<path d="M12270 15441 c0 -6 4 -13 10 -16 6 -3 7 1 4 9 -7 18 -14 21 -14 7z"/>
<path d="M13689 15448 c-5 -18 -6 -38 -1 -34 7 8 12 36 6 36 -2 0 -4 -1 -5 -2z"/>
<path d="M12301 15424 c0 -11 3 -14 6 -6 3 7 2 16 -1 19 -3 4 -6 -2 -5 -13z"/>
<path d="M14173 15425 c0 -8 4 -12 9 -9 5 3 6 10 3 15 -9 13 -12 11 -12 -6z"/>
<path d="M13691 15387 c-13 -21 -12 -21 5 -5 10 10 16 20 13 22 -3 3 -11 -5
-18 -17z"/>
<path d="M14217 15389 c7 -7 15 -10 18 -7 3 3 -2 9 -12 12 -14 6 -15 5 -6 -5z"/>
<path d="M12256 15378 c4 -5 12 -7 19 -4 7 2 18 0 24 -5 8 -6 8 -5 1 3 -11 14
-52 19 -44 6z"/>
<path d="M13771 15387 c2 -1 13 -9 24 -17 19 -14 19 -14 6 3 -7 9 -18 17 -24
17 -6 0 -8 -1 -6 -3z"/>
<path d="M14810 15375 c-8 -9 -8 -15 -2 -15 6 0 12 5 14 11 3 9 10 9 28 0 24
-11 24 -11 6 3 -25 20 -30 20 -46 1z"/>
<path d="M14158 15363 c7 -3 16 -2 19 1 4 3 -2 6 -13 5 -11 0 -14 -3 -6 -6z"/>
<path d="M14055 15347 c-15 -12 -16 -15 -4 -22 8 -5 11 -5 7 0 -4 4 0 14 10
21 23 18 11 18 -13 1z"/>
<path d="M14360 15330 c0 -5 5 -10 10 -10 6 0 10 5 10 10 0 6 -4 10 -10 10 -5
0 -10 -4 -10 -10z"/>
<path d="M14989 15335 c-1 -5 -1 -13 -1 -16 1 -3 -25 -14 -56 -23 -31 -10 -75
-26 -97 -36 -22 -10 -58 -23 -80 -30 -22 -7 -58 -21 -80 -31 -109 -48 -170
-71 -190 -73 -13 0 -21 -5 -17 -10 3 -5 -2 -7 -11 -3 -10 3 -17 2 -17 -3 0 -5
-9 -12 -20 -15 -12 -4 -32 -24 -47 -46 l-25 -39 -29 21 c-16 11 -28 24 -26 29
1 4 -2 8 -8 8 -5 1 -9 -6 -7 -14 2 -8 -1 -14 -5 -13 -4 1 -17 -1 -28 -5 -55
-21 -104 -40 -140 -56 -22 -9 -65 -25 -95 -35 -30 -10 -84 -31 -119 -46 -35
-16 -69 -29 -76 -29 -6 0 -35 -11 -63 -25 l-52 -25 26 -51 c61 -121 83 -333
49 -477 -51 -214 -212 -406 -410 -486 -31 -13 -56 -27 -57 -31 0 -4 40 -48 89
-98 100 -103 177 -192 277 -317 38 -47 72 -85 77 -85 4 0 73 106 152 235 79
129 336 546 572 925 235 380 457 737 492 794 36 56 59 100 53 96 -7 -4 -16 -1
-21 6 -5 8 -9 10 -10 4z"/>
<path d="M12205 15319 c-4 -5 -4 -13 -1 -16 3 -4 6 0 6 8 0 11 2 11 10 -1 6
-9 10 -10 10 -3 0 17 -17 25 -25 12z"/>
<path d="M14001 15317 c-8 -10 -7 -14 2 -14 8 0 14 6 14 14 0 7 -1 13 -2 13
-2 0 -8 -6 -14 -13z"/>
<path d="M14880 15320 c0 -5 5 -10 10 -10 6 0 10 5 10 10 0 6 -4 10 -10 10 -5
0 -10 -4 -10 -10z"/>
<path d="M14938 15323 c7 -3 16 -2 19 1 4 3 -2 6 -13 5 -11 0 -14 -3 -6 -6z"/>
<path d="M14104 15278 c-10 -13 -12 -17 -4 -11 8 6 18 12 23 12 8 1 11 11 4
17 -2 2 -12 -6 -23 -18z"/>
<path d="M10505 15260 c-3 -5 -3 -10 2 -10 4 0 3 -4 -3 -8 -18 -12 -83 -120
-77 -126 12 -12 93 -6 94 7 2 25 -3 52 -13 65 -8 9 -5 12 8 12 15 0 16 2 5 9
-10 6 -11 13 -2 29 11 21 -2 42 -14 22z"/>
<path d="M14474 15238 l-19 -23 23 19 c12 11 22 21 22 23 0 8 -8 2 -26 -19z"/>
<path d="M14546 15243 c-6 -14 -5 -15 5 -6 7 7 10 15 7 18 -3 3 -9 -2 -12 -12z"/>
<path d="M14505 15241 c-3 -5 0 -13 6 -17 7 -4 9 -3 5 4 -3 5 0 13 6 15 9 4
10 6 1 6 -6 1 -14 -3 -18 -8z"/>
<path d="M13936 15227 c3 -10 9 -15 12 -12 3 3 0 11 -7 18 -10 9 -11 8 -5 -6z"/>
<path d="M14020 15210 c0 -5 5 -10 11 -10 5 0 7 5 4 10 -3 6 -8 10 -11 10 -2
0 -4 -4 -4 -10z"/>
<path d="M14083 15191 c-1 -14 1 -19 4 -11 3 8 10 20 14 26 5 6 4 11 -4 11 -7
0 -13 -12 -14 -26z"/>
<path d="M12734 15178 l-19 -23 23 19 c12 11 22 21 22 23 0 8 -8 2 -26 -19z"/>
<path d="M12925 15190 c-3 -5 -1 -10 4 -10 6 0 11 5 11 10 0 6 -2 10 -4 10 -3
0 -8 -4 -11 -10z"/>
<path d="M13028 15193 c7 -3 16 -2 19 1 4 3 -2 6 -13 5 -11 0 -14 -3 -6 -6z"/>
<path d="M14310 15180 c0 -5 5 -10 11 -10 5 0 7 5 4 10 -3 6 -8 10 -11 10 -2
0 -4 -4 -4 -10z"/>
<path d="M12094 15173 c8 -15 -4 -44 -15 -37 -5 3 -8 0 -7 -8 2 -7 -3 -12 -11
-10 -12 3 -12 1 -1 -15 8 -10 11 -15 6 -11 -16 13 -77 -67 -69 -89 4 -9 2 -14
-3 -10 -10 6 -18 -5 -107 -144 l-54 -86 66 -28 c84 -36 296 -142 379 -189 35
-20 66 -36 68 -36 2 0 4 10 4 23 1 51 32 166 64 233 34 72 34 72 11 68 -27 -5
-28 9 -3 45 12 17 23 22 42 19 27 -5 30 1 20 40 -5 18 -13 22 -45 22 -22 0
-39 4 -39 9 0 5 -8 11 -17 15 -10 3 -27 11 -38 17 -53 32 -45 28 -127 54 -32
10 -58 22 -58 27 0 4 -18 8 -41 8 -33 0 -40 3 -37 18 2 9 9 16 16 15 6 -2 9 4
6 12 -4 10 0 13 15 10 13 -2 19 0 15 6 -3 6 -8 8 -12 5 -3 -3 -11 2 -19 12 -8
9 -12 12 -9 5z m-11 -113 c10 -12 29 -20 47 -20 16 0 30 -4 30 -10 0 -13 -77
-13 -82 0 -1 5 -15 11 -30 12 -25 2 -26 3 -11 20 20 23 25 23 46 -2z m229
-100 c16 0 28 -4 28 -10 0 -13 -12 -13 -60 2 -22 7 -40 19 -40 26 0 10 5 10
22 -2 12 -9 35 -16 50 -16z m-119 -7 c-7 -2 -19 -2 -25 0 -7 3 -2 5 12 5 14 0
19 -2 13 -5z m218 -39 c11 -14 9 -15 -16 -12 -16 1 -30 9 -33 16 -6 18 33 15
49 -4z"/>
<path d="M12046 15062 c-3 -5 1 -9 9 -9 8 0 15 4 15 9 0 4 -4 8 -9 8 -6 0 -12
-4 -15 -8z"/>
<path d="M12786 15164 c-5 -14 -4 -15 8 -5 11 10 15 9 19 -4 4 -13 5 -12 3 1
-2 24 -22 29 -30 8z"/>
<path d="M14340 15176 c0 -2 7 -7 16 -10 8 -3 12 -2 9 4 -6 10 -25 14 -25 6z"/>
<path d="M14092 15146 c7 -8 15 -12 17 -11 5 6 -10 25 -20 25 -5 0 -4 -6 3
-14z"/>
<path d="M12150 15131 c0 -10 19 -25 25 -20 1 2 -3 10 -11 17 -8 7 -14 8 -14
3z"/>
<path d="M14250 15130 c0 -5 5 -10 11 -10 5 0 7 5 4 10 -3 6 -8 10 -11 10 -2
0 -4 -4 -4 -10z"/>
<path d="M12640 15110 c0 -5 5 -10 11 -10 5 0 7 5 4 10 -3 6 -8 10 -11 10 -2
0 -4 -4 -4 -10z"/>
<path d="M13005 15111 c-3 -5 -2 -12 3 -15 5 -3 9 1 9 9 0 17 -3 19 -12 6z"/>
<path d="M14182 15107 c10 -8 14 -18 10 -22 -4 -5 -1 -5 6 -1 17 10 15 14 -10
26 -21 10 -21 10 -6 -3z"/>
<path d="M13446 15102 c-3 -4 4 -9 15 -9 23 -2 25 3 4 10 -8 4 -16 3 -19 -1z"/>
<path d="M12920 15096 c0 -2 8 -10 18 -17 15 -13 16 -12 3 4 -13 16 -21 21
-21 13z"/>
<path d="M12836 15068 c3 -5 10 -6 15 -3 13 9 11 12 -6 12 -8 0 -12 -4 -9 -9z"/>
<path d="M12906 15063 c-6 -14 -5 -15 5 -6 7 7 10 15 7 18 -3 3 -9 -2 -12 -12z"/>
<path d="M12966 15072 c-3 -5 1 -9 9 -9 8 0 12 4 9 9 -3 4 -7 8 -9 8 -2 0 -6
-4 -9 -8z"/>
<path d="M14170 15061 c0 -6 4 -13 10 -16 6 -3 7 1 4 9 -7 18 -14 21 -14 7z"/>
<path d="M12865 15050 c-3 -6 1 -7 9 -4 18 7 21 14 7 14 -6 0 -13 -4 -16 -10z"/>
<path d="M13335 15049 c-4 -6 -5 -12 -2 -15 2 -3 7 2 10 11 7 17 1 20 -8 4z"/>
<path d="M12985 15040 c-3 -5 -1 -10 4 -10 6 0 11 5 11 10 0 6 -2 10 -4 10 -3
0 -8 -4 -11 -10z"/>
<path d="M12533 15029 c-6 -6 -9 -18 -5 -27 4 -11 1 -14 -11 -9 -9 3 -21 -1
-29 -11 -12 -15 -11 -16 5 -3 16 13 22 8 17 -14 -1 -5 5 -3 12 5 7 8 20 20 28
28 11 10 11 12 1 6 -11 -5 -13 -2 -9 14 7 25 6 26 -9 11z"/>
<path d="M12739 15023 c-13 -16 -12 -17 4 -4 9 7 17 15 17 17 0 8 -8 3 -21
-13z"/>
<path d="M12774 15029 c-4 -7 -3 -9 4 -5 5 3 13 0 15 -6 4 -9 6 -10 6 -1 1 17
-16 25 -25 12z"/>
<path d="M12895 15020 c10 -11 20 -20 23 -20 3 0 -3 9 -13 20 -10 11 -20 20
-23 20 -3 0 3 -9 13 -20z"/>
<path d="M13253 15029 c-6 -6 -9 -18 -5 -27 4 -11 1 -14 -11 -9 -9 3 -21 -1
-29 -11 -11 -15 -11 -15 3 -5 19 16 33 5 18 -14 -9 -9 -8 -13 0 -13 6 0 11 4
11 10 0 5 10 19 23 31 12 12 16 18 8 14 -11 -6 -13 -3 -9 13 7 25 6 26 -9 11z"/>
<path d="M13563 15022 c-8 -5 -7 -11 2 -19 10 -10 14 -9 19 2 6 17 -5 26 -21
17z"/>
<path d="M13405 15010 c-3 -6 1 -7 9 -4 18 7 21 14 7 14 -6 0 -13 -4 -16 -10z"/>
<path d="M12942 15003 c-7 -2 -17 -14 -23 -26 -9 -19 -8 -20 3 -7 8 8 20 21
28 28 15 13 13 14 -8 5z"/>
<path d="M13367 14987 c-7 -18 8 -33 18 -17 4 6 11 8 16 5 5 -4 9 -1 9 5 0 7
-6 10 -14 7 -8 -3 -16 -1 -19 6 -2 6 -6 4 -10 -6z"/>
<path d="M13095 14970 c-3 -5 -1 -10 4 -10 6 0 11 5 11 10 0 6 -2 10 -4 10 -3
0 -8 -4 -11 -10z"/>
<path d="M13390 14949 c0 -4 6 -9 13 -12 8 -3 14 0 14 7 0 7 -6 13 -14 13 -7
0 -13 -4 -13 -8z"/>
<path d="M13645 14949 c-4 -6 -5 -12 -2 -15 2 -3 7 2 10 11 7 17 1 20 -8 4z"/>
<path d="M12819 14933 c-13 -16 -12 -17 4 -4 9 7 17 15 17 17 0 8 -8 3 -21
-13z"/>
<path d="M12880 14939 c0 -15 18 -19 23 -6 3 8 -1 14 -9 14 -8 0 -14 -4 -14
-8z"/>
<path d="M13367 14929 c7 -7 15 -10 18 -7 3 3 -2 9 -12 12 -14 6 -15 5 -6 -5z"/>
<path d="M12621 14916 c-8 -9 -11 -19 -7 -23 9 -9 29 13 24 27 -2 8 -8 7 -17
-4z"/>
<path d="M12986 14895 c-11 -8 -15 -15 -9 -15 6 0 16 7 23 15 16 19 11 19 -14
0z"/>
<path d="M12554 14869 c-10 -13 -14 -19 -8 -16 7 4 12 -3 12 -18 0 -14 -5 -25
-10 -25 -5 0 -7 4 -3 9 3 5 1 12 -4 15 -5 4 -8 -5 -6 -19 2 -19 -1 -23 -10
-15 -6 5 -15 7 -18 3 -4 -3 1 -12 11 -19 16 -12 15 -13 -3 -8 -17 4 -25 -5
-48 -56 -28 -61 -56 -172 -57 -221 0 -23 13 -35 81 -79 45 -28 82 -50 83 -48
1 2 12 37 25 78 13 41 42 112 66 158 41 80 41 82 19 82 -12 0 -24 -6 -27 -12
-2 -7 -4 -1 -4 15 0 15 4 27 9 27 5 0 6 -4 3 -10 -4 -6 7 -10 25 -10 23 0 33
5 37 20 3 11 10 20 15 20 5 0 7 4 4 9 -4 5 -1 11 6 13 15 5 21 48 7 48 -7 0
-18 8 -26 18 -12 15 -12 14 -2 -10 7 -15 15 -25 19 -23 4 2 7 -3 7 -12 0 -12
-5 -10 -19 7 -20 24 -49 45 -80 56 -10 3 -18 13 -18 20 0 8 -9 14 -19 14 -11
0 -26 2 -33 5 -8 3 -23 -4 -34 -16z m94 -65 c12 -4 22 -10 22 -14 0 -12 -36
-18 -51 -9 -11 7 -9 9 6 10 l20 0 -20 9 c-23 10 -10 12 23 4z m-97 -27 c-10
-9 -11 -8 -5 6 3 10 9 15 12 12 3 -3 0 -11 -7 -18z m173 -12 c-4 -8 -12 -15
-20 -15 -20 0 -17 18 4 23 9 3 18 5 19 6 1 0 0 -6 -3 -14z m-7 -51 c-3 -3 -12
-4 -19 -1 -8 3 -5 6 6 6 11 1 17 -2 13 -5z"/>
<path d="M10146 14697 c-65 -100 -113 -183 -107 -185 6 -2 8 -9 5 -14 -5 -7
-2 -8 6 -3 7 4 15 3 19 -2 11 -17 91 -43 131 -43 68 0 164 48 215 109 68 80
85 101 113 144 18 26 32 50 32 53 0 3 9 14 20 26 11 12 20 30 20 40 0 13 4 17
13 12 8 -5 9 -4 2 3 -10 11 -254 43 -316 42 -33 0 -38 -6 -153 -182z"/>
<path d="M12421 14866 c-9 -11 -9 -15 1 -19 16 -5 48 10 48 23 0 15 -36 12
-49 -4z"/>
<path d="M13152 14866 c7 -8 15 -12 17 -11 5 6 -10 25 -20 25 -5 0 -4 -6 3
-14z"/>
<path d="M13707 14873 c-11 -11 -8 -21 9 -27 13 -5 14 -4 6 7 -7 8 -9 17 -5
20 3 4 4 7 1 7 -2 0 -8 -3 -11 -7z"/>
<path d="M13136 14841 c-4 -5 -2 -12 3 -15 5 -4 12 -2 15 3 4 5 2 12 -3 15 -5
4 -12 2 -15 -3z"/>
<path d="M13263 14815 c0 -8 4 -12 9 -9 5 3 6 10 3 15 -9 13 -12 11 -12 -6z"/>
<path d="M13046 14788 c3 -5 10 -6 15 -3 13 9 11 12 -6 12 -8 0 -12 -4 -9 -9z"/>
<path d="M13095 14791 c-3 -5 -2 -12 3 -15 5 -3 9 1 9 9 0 17 -3 19 -12 6z"/>
<path d="M13614 14790 c-19 -7 -22 -19 -27 -102 -10 -154 -66 -310 -168 -467
-55 -87 -174 -218 -243 -270 l-30 -22 49 -49 c27 -28 57 -50 66 -50 29 0 172
77 226 122 196 163 284 425 223 663 -18 69 -63 186 -72 184 -2 0 -12 -4 -24
-9z"/>
<path d="M12834 14745 c-5 -13 -9 -14 -15 -3 -7 10 -9 9 -9 -3 0 -9 -7 -20
-16 -23 -9 -4 -12 -11 -7 -18 13 -22 10 -58 -6 -71 -14 -10 -14 -10 -3 5 9 11
10 18 2 23 -8 5 -8 11 1 21 10 12 9 13 -4 8 -8 -3 -18 -12 -21 -20 -3 -9 -1
-12 4 -9 6 3 10 2 10 -3 0 -5 -9 -12 -21 -15 -12 -3 -18 -10 -14 -16 3 -6 2
-11 -3 -11 -20 0 -127 -261 -111 -273 46 -36 151 -107 157 -107 5 0 17 19 28
43 20 45 71 141 119 221 16 27 25 47 20 44 -6 -3 -16 1 -24 9 -12 13 -11 14 5
9 25 -8 48 8 41 28 -4 9 -1 15 6 13 6 -1 13 9 15 22 2 15 0 21 -7 16 -6 -3 -8
-11 -5 -17 5 -7 2 -8 -5 -4 -9 6 -8 12 4 26 16 18 12 46 -5 35 -4 -2 -24 6
-44 20 -20 14 -40 25 -43 25 -3 0 -14 10 -24 21 -17 20 -19 20 -25 4z m70 -91
c27 -10 7 -24 -32 -23 -23 1 -29 3 -14 6 12 2 22 9 22 14 0 11 3 11 24 3z"/>
<path d="M13329 14743 c-13 -16 -12 -17 4 -4 9 7 17 15 17 17 0 8 -8 3 -21
-13z"/>
<path d="M13480 14746 c-14 -8 -28 -12 -32 -10 -5 3 -8 1 -8 -4 0 -5 -17 -16
-39 -24 -34 -13 -45 -28 -100 -127 -86 -157 -174 -297 -254 -403 -37 -50 -69
-94 -70 -98 -1 -3 28 -32 66 -64 l67 -57 39 30 c100 79 223 236 290 369 49 97
91 238 98 324 6 72 5 78 -13 78 -10 -1 -30 -7 -44 -14z"/>
<path d="M13129 14733 c-13 -16 -12 -17 3 -5 9 8 23 10 29 6 8 -4 9 -3 5 4
-10 17 -21 15 -37 -5z"/>
<path d="M13106 14674 c-8 -20 -8 -24 2 -24 4 0 8 9 9 20 2 24 -3 26 -11 4z"/>
<path d="M13292 14682 c3 -12 -42 -34 -97 -48 -23 -6 -61 -22 -89 -36 -14 -8
-18 -7 -14 4 4 9 -4 13 -23 14 -16 1 -29 -3 -29 -8 0 -5 4 -7 9 -4 5 3 12 -1
15 -10 3 -8 2 -13 -3 -9 -5 3 -12 -1 -14 -7 -4 -10 -6 -10 -6 0 -2 20 -40 -25
-91 -107 -60 -98 -140 -245 -140 -259 0 -10 123 -112 136 -112 10 0 26 21 138
190 143 214 233 377 217 393 -10 9 -12 9 -9 -1z"/>
<path d="M5095 14425 c-143 -26 -270 -93 -380 -200 -82 -81 -142 -176 -182
-290 -25 -73 -27 -92 -27 -225 0 -131 3 -152 28 -225 117 -342 458 -551 805
-494 84 13 192 51 261 92 30 17 93 70 140 117 145 144 211 305 211 510 0 190
-64 356 -189 491 -112 121 -228 187 -387 220 -103 21 -180 23 -280 4z"/>
<path d="M9875 13574 c-720 -33 -1386 -297 -1930 -766 -135 -117 -249 -235
-385 -398 -311 -375 -536 -861 -639 -1375 -72 -362 -72 -828 0 -1190 126 -634
408 -1165 858 -1616 269 -270 503 -440 826 -599 484 -239 958 -343 1485 -327
482 15 882 115 1293 323 472 239 837 544 1140 952 196 265 390 641 470 912 46
155 105 423 123 555 25 183 25 608 0 790 -80 581 -303 1110 -656 1555 -106
135 -375 403 -510 510 -452 359 -1021 592 -1596 654 -148 16 -364 25 -479 20z
m1937 -1163 c29 -26 33 -35 32 -78 -1 -61 -76 -223 -200 -429 -75 -126 -84
-145 -84 -190 0 -53 15 -91 42 -108 29 -17 84 20 135 91 47 66 50 68 72 54 24
-16 -8 -78 -83 -160 -99 -107 -229 -118 -290 -25 l-19 29 -61 -61 c-103 -102
-196 -120 -260 -50 l-30 32 -34 -38 c-42 -46 -124 -88 -174 -88 -49 0 -96 20
-127 54 l-24 26 -34 -40 c-71 -83 -168 -116 -247 -86 -86 33 -94 111 -26 265
39 90 39 101 -3 101 -32 0 -35 -3 -62 -67 -92 -221 -188 -322 -322 -340 -27
-3 -66 -18 -88 -33 -56 -38 -109 -53 -167 -48 -55 6 -92 28 -126 79 -21 30
-23 43 -19 107 11 186 167 352 331 352 112 0 161 -58 154 -184 -3 -65 -14 -98
-66 -198 -7 -14 63 15 97 40 44 32 104 128 141 224 l30 77 -20 33 c-32 53 -25
103 23 156 26 28 57 28 92 0 27 -21 30 -41 14 -108 -6 -22 43 -25 98 -6 67 23
91 21 105 -9 13 -29 8 -49 -45 -170 -45 -101 -53 -143 -33 -170 l15 -20 38 20
c20 11 51 39 69 61 26 34 32 54 38 115 24 265 179 604 314 690 51 32 80 36
120 15 46 -24 58 -58 44 -123 -22 -105 -161 -353 -268 -479 -36 -43 -45 -61
-50 -105 -7 -65 7 -105 42 -121 22 -10 32 -9 62 7 55 31 89 82 115 173 51 175
193 312 324 312 l51 0 27 83 c94 288 235 429 337 338z m-2192 -303 c69 -35 76
-57 63 -180 -36 -315 -214 -669 -387 -768 -98 -57 -201 -35 -236 50 l-12 30
-71 -66 c-109 -103 -211 -138 -287 -99 -94 48 -80 154 59 468 39 86 79 186 90
223 25 80 28 152 6 160 -77 30 -260 -146 -310 -297 -21 -63 -14 -105 25 -154
23 -29 28 -41 19 -51 -30 -36 -161 5 -212 65 -95 113 71 350 338 482 130 64
232 71 285 18 55 -56 47 -148 -30 -334 -130 -313 -143 -349 -144 -405 l-1 -55
34 -3 c31 -3 41 3 108 72 40 42 75 86 77 99 54 283 94 379 178 423 38 20 65
17 89 -7 18 -18 20 -29 15 -66 -8 -61 -55 -168 -122 -280 -61 -103 -64 -124
-19 -169 20 -20 27 -22 54 -13 73 26 156 151 216 329 55 159 70 249 70 408 l0
142 30 0 c17 0 51 -10 75 -22z m1097 -994 c59 -38 66 -125 16 -184 -35 -43
-74 -60 -132 -60 -155 0 -159 199 -5 256 43 15 86 11 121 -12z m1758 -23 c84
-38 104 -91 112 -288 l6 -143 29 0 29 0 -3 -87 -3 -88 -160 -25 -160 -26 -5
221 c-3 121 -9 226 -13 233 -12 18 -54 15 -76 -7 -23 -23 -34 -95 -29 -206 l3
-80 38 3 38 4 -3 -88 -3 -89 -135 -22 c-74 -12 -150 -22 -167 -22 l-33 -1 0
218 c0 156 -3 221 -12 230 -17 17 -48 15 -70 -5 -16 -14 -18 -33 -18 -154 l0
-138 35 6 35 6 0 -87 c0 -81 -1 -86 -22 -91 -24 -5 -341 -55 -352 -55 -3 0 -6
38 -6 85 0 82 1 85 25 91 l25 6 0 150 0 150 -25 -6 -25 -6 0 88 0 89 108 17
c139 21 136 21 150 -16 l12 -33 26 33 c71 90 219 118 295 55 l29 -25 40 35
c88 80 201 107 285 68z m-1015 -265 l0 -114 -27 -6 c-16 -3 -46 -8 -68 -12
-22 -3 -48 -8 -57 -11 -12 -3 -22 4 -30 22 -31 68 -168 76 -168 9 0 -30 -2
-29 143 -58 130 -27 177 -50 201 -100 54 -114 -26 -251 -172 -296 -97 -30
-158 -24 -224 22 l-28 19 0 -29 c0 -39 -14 -48 -84 -57 -33 -4 -65 -9 -73 -12
-10 -4 -13 19 -13 115 l0 120 73 12 c39 6 78 13 85 16 8 2 16 -5 19 -16 17
-65 183 -65 183 0 0 22 -11 26 -126 39 -45 6 -100 18 -123 27 -159 63 -140
277 32 357 95 45 178 45 242 1 38 -25 45 -23 45 17 0 25 5 29 38 34 20 4 44 8
52 10 8 1 30 3 48 4 l32 1 0 -114z m-710 -232 l0 -236 30 6 30 6 0 -89 0 -88
-42 -6 c-24 -4 -101 -16 -172 -27 -71 -11 -133 -20 -137 -20 -5 0 -9 38 -9 84
0 81 1 84 25 90 l25 6 0 151 0 151 -25 -4 -25 -5 0 87 0 88 123 20 c67 11 134
20 150 21 l27 1 0 -236z m-350 96 c0 -115 -1 -120 -21 -120 -11 0 -42 -10 -70
-21 -72 -32 -89 -64 -89 -178 l0 -91 30 0 30 0 0 -85 0 -84 -32 -6 c-18 -3
-89 -14 -158 -25 -69 -11 -138 -22 -153 -25 l-28 -5 3 88 c3 87 3 87 31 90
l27 3 0 154 0 155 -30 -6 -30 -6 0 86 c0 81 1 86 23 90 27 6 212 36 220 36 4
0 15 -17 25 -37 l19 -37 16 30 c21 40 54 69 107 93 81 37 80 37 80 -99z
m-2090 -158 l0 -168 -95 -15 -95 -15 0 83 0 84 -37 -6 c-80 -14 -73 15 -73
-291 l0 -275 55 6 55 7 0 -86 c0 -81 -1 -86 -22 -91 -13 -3 -111 -19 -218 -35
-107 -17 -205 -32 -217 -35 -23 -5 -23 -4 -23 84 l0 90 50 7 50 7 0 278 0 279
-25 -5 c-14 -3 -36 -7 -50 -10 -23 -5 -24 -9 -27 -87 l-3 -82 -75 -12 c-134
-22 -120 -40 -120 155 l0 168 148 23 c81 13 264 42 407 65 143 24 272 43 288
44 l27 1 0 -168z m1490 -88 l0 -236 30 7 30 7 0 -90 0 -89 -107 -17 c-140 -21
-138 -21 -153 14 -7 17 -14 30 -17 30 -2 0 -18 -16 -35 -36 -54 -61 -100 -79
-205 -79 -109 0 -134 13 -173 91 -23 44 -25 63 -28 202 l-4 152 -29 0 -29 0 0
84 c0 84 0 84 28 90 28 6 279 46 286 46 2 0 6 -93 8 -207 2 -145 7 -215 16
-230 25 -45 99 -19 123 44 5 13 9 73 9 132 l0 109 -45 -6 -45 -5 0 87 c0 47 3
86 8 87 4 0 70 11 147 24 77 12 150 23 163 24 l22 1 0 -236z m-909 63 c194
-81 223 -374 53 -544 -69 -68 -174 -114 -278 -120 -115 -8 -184 14 -248 78
-61 61 -83 131 -75 237 13 165 136 309 307 357 66 18 189 14 241 -8z m2346
-813 c-37 -34 -58 -80 -97 -204 -17 -58 -72 -229 -122 -380 -102 -310 -111
-325 -208 -354 -89 -26 -164 -15 -200 31 -59 75 19 174 139 176 37 0 48 -5 69
-28 32 -38 25 -86 -19 -131 l-33 -34 33 10 c19 5 44 16 57 25 24 16 64 83 64
108 0 8 -72 161 -159 341 -127 259 -165 328 -185 338 -49 22 -29 34 77 46 56
7 145 21 197 32 52 11 96 17 98 15 10 -10 -9 -35 -26 -35 -10 0 -26 -6 -36
-13 -17 -12 -13 -25 65 -195 45 -100 83 -181 85 -179 12 12 74 257 74 293 0
66 -30 113 -72 114 -10 0 -18 6 -18 14 0 10 16 17 48 21 26 4 76 12 112 19 77
14 95 5 57 -30z m-1566 -33 c122 -47 187 -151 196 -316 9 -158 -38 -285 -147
-396 -117 -118 -232 -165 -502 -205 -94 -14 -202 -31 -240 -38 -65 -12 -87 -8
-73 14 3 6 14 10 24 10 11 0 29 9 42 19 l24 19 0 390 c0 429 1 422 -61 422
-22 0 -34 5 -34 14 0 10 25 17 88 26 48 7 157 25 242 41 193 35 350 35 441 0z
m768 -76 c63 -32 66 -43 69 -323 3 -210 6 -254 18 -259 8 -3 21 0 28 6 19 16
32 -4 17 -23 -20 -24 -113 -58 -173 -63 -63 -6 -101 10 -113 46 -6 19 -9 17
-37 -15 -88 -100 -258 -112 -301 -21 -47 99 10 201 153 276 107 55 156 90 168
116 17 36 15 149 -2 190 -17 41 -49 52 -100 35 -33 -11 -49 -30 -26 -30 6 0
22 -11 35 -25 54 -53 20 -157 -62 -191 -51 -22 -81 -17 -115 16 -27 28 -30 36
-26 79 3 26 13 59 24 74 77 102 336 168 443 112z"/>
<path d="M11707 12293 c-46 -90 -135 -368 -122 -382 7 -6 141 274 165 343 41
121 13 146 -43 39z"/>
<path d="M11072 12227 c-44 -47 -190 -397 -179 -430 8 -25 144 220 192 348 37
98 32 130 -13 82z"/>
<path d="M11364 11901 c-75 -46 -161 -255 -134 -325 17 -45 53 -35 120 33 l57
58 7 99 c4 55 8 110 9 124 2 31 -19 36 -59 11z"/>
<path d="M9878 11671 c-79 -63 -139 -301 -90 -361 25 -31 65 -20 56 15 -7 29
13 60 54 85 25 16 33 30 46 89 35 155 7 229 -66 172z"/>
<path d="M8655 10324 c-31 -33 -49 -112 -42 -186 6 -65 26 -103 62 -120 32
-15 71 11 93 60 20 47 22 175 3 220 -24 57 -76 69 -116 26z"/>
<path d="M9355 9653 c-46 -10 -73 -26 -84 -49 -7 -17 -11 -142 -11 -397 0
-437 -3 -423 87 -414 146 15 222 128 243 363 12 124 2 272 -25 361 -30 100
-117 157 -210 136z"/>
<path d="M10236 9243 c-46 -53 -66 -102 -66 -159 0 -77 36 -105 88 -68 19 13
22 23 21 87 -1 40 -4 95 -7 122 l-7 51 -29 -33z"/>
<path d="M14084 13492 c3 -5 0 -13 -6 -15 -9 -4 -10 -6 -1 -6 17 -1 25 16 12
25 -7 4 -9 3 -5 -4z"/>
<path d="M14020 13393 c-23 -38 -70 -113 -105 -167 l-63 -100 40 -58 c21 -33
63 -96 91 -142 l52 -83 4 196 c2 108 4 228 5 268 0 39 5 66 9 60 5 -7 7 -2 6
13 -2 22 5 48 18 73 2 4 0 7 -6 7 -6 0 -29 -30 -51 -67z"/>
<path d="M5994 13183 c-21 -32 -63 -84 -93 -116 -54 -57 -65 -92 -14 -46 14
13 23 18 19 12 -6 -10 -1 -11 20 -3 15 6 41 8 57 4 23 -5 28 -3 21 7 -6 11 -5
12 7 3 8 -5 20 -9 27 -8 6 1 20 2 30 3 10 0 28 14 40 31 l22 30 -46 70 c-26
38 -48 70 -49 70 -1 0 -19 -26 -41 -57z"/>
<path d="M3820 12914 c-226 -48 -401 -184 -500 -389 -62 -129 -75 -184 -75
-325 1 -201 60 -351 196 -494 284 -300 744 -309 1035 -21 132 131 196 262 217
445 22 201 -45 408 -185 564 -56 63 -178 149 -256 181 -129 52 -299 68 -432
39z"/>
<path d="M16095 12524 c-588 -134 -1080 -243 -1092 -244 -17 0 -23 8 -28 42
-8 47 -48 93 -88 103 -34 9 -396 -72 -421 -94 -44 -39 -53 -86 -30 -163 3 -12
-4 -18 -26 -23 -24 -5 -30 -11 -25 -23 11 -29 121 -364 137 -417 8 -27 19 -49
24 -48 5 0 144 33 309 71 165 39 314 73 332 77 l31 6 -24 -77 c-95 -299 -20
-622 195 -843 38 -39 45 -51 33 -55 -26 -8 -599 -133 -669 -147 l-63 -12 0
-248 0 -249 59 0 c33 0 123 15 203 34 78 19 711 163 1406 320 694 158 1280
293 1302 302 50 20 122 99 138 152 7 21 12 61 12 88 0 63 -50 284 -64 284 -6
0 -227 -49 -491 -109 -264 -60 -481 -108 -483 -106 -1 1 9 42 24 91 83 282 12
592 -185 806 -34 36 -58 69 -54 71 5 3 224 53 488 112 264 60 482 110 484 112
9 6 -51 258 -69 293 -44 85 -137 140 -235 139 -40 -1 -411 -81 -1130 -245z"/>
<path d="M15135 10090 c-3 -6 1 -7 9 -4 18 7 21 14 7 14 -6 0 -13 -4 -16 -10z"/>
<path d="M14955 10054 c-112 -26 -166 -33 -213 -30 -73 4 -65 18 -82 -149 -6
-60 -14 -122 -17 -137 -3 -17 -1 -28 5 -28 6 0 9 7 5 16 -5 13 -2 15 16 9 15
-4 21 -3 19 7 -2 7 3 12 10 11 6 -2 12 1 12 6 0 11 58 71 69 71 4 0 18 11 31
25 13 14 29 25 35 25 6 0 22 10 35 22 34 32 79 61 117 77 18 7 31 16 30 20 -1
3 3 8 8 9 27 10 45 24 42 34 -1 7 4 13 11 14 6 1 17 2 22 3 11 1 14 31 3 30
-5 0 -75 -16 -158 -35z"/>
<path d="M14326 8609 c-9 -22 -16 -42 -16 -44 0 -13 49 -3 61 12 11 13 11 15
1 9 -9 -6 -12 -3 -10 10 2 11 -2 18 -9 17 -7 -2 -13 1 -13 6 0 5 8 11 18 13
15 3 16 4 0 10 -12 5 -20 -3 -32 -33z"/>
<path d="M14323 8403 l-92 -4 -69 -132 c-91 -174 -224 -391 -332 -541 -48 -66
-85 -124 -81 -128 3 -4 65 -27 138 -52 127 -43 132 -44 148 -26 9 10 14 24 10
29 -3 6 -1 11 6 11 7 0 10 3 6 6 -8 9 21 64 34 64 6 0 7 5 4 10 -3 6 -2 10 2
10 19 0 7 49 -17 69 -16 13 -21 23 -14 28 6 5 14 15 17 23 4 8 21 35 37 60 16
25 37 63 48 85 10 22 26 46 35 54 10 7 17 21 17 31 0 10 6 20 13 23 6 2 20 28
31 56 10 28 22 51 28 51 5 0 6 5 3 10 -3 6 -1 10 4 10 6 0 11 6 11 13 0 6 18
51 42 98 39 83 43 87 79 93 23 4 42 14 49 25 15 29 13 31 -27 29 -21 -1 -79
-4 -130 -5z"/>
<path d="M14717 8267 c-14 -83 -40 -386 -34 -401 30 -76 651 -199 1317 -260
508 -47 927 -44 993 7 12 9 21 58 37 199 11 103 20 198 20 212 0 24 -1 24 -28
10 -104 -51 -645 -40 -1220 26 -510 59 -948 148 -1045 214 l-35 24 -5 -31z"/>
<path d="M6273 8167 l-82 -31 17 -29 c9 -16 44 -68 78 -116 66 -94 69 -95 139
-62 22 10 52 25 67 32 27 12 27 13 8 26 -10 7 -45 58 -76 113 -31 55 -59 99
-63 99 -3 -1 -43 -15 -88 -32z"/>
<path d="M5845 8003 c-60 -24 -101 -42 -90 -41 11 1 26 -1 34 -6 11 -7 12 -6
6 5 -8 12 -6 12 8 0 13 -10 17 -10 17 -1 0 10 3 10 14 1 8 -6 38 -14 67 -18
30 -3 62 -10 73 -15 14 -7 16 -7 11 2 -4 7 4 4 19 -5 16 -11 26 -13 26 -6 0
13 -58 119 -68 124 -4 2 -56 -16 -117 -40z"/>
<path d="M12525 8040 c6 -10 1 -12 -18 -8 -15 3 -24 1 -21 -3 7 -12 41 -11 49
0 3 5 0 13 -6 17 -8 5 -9 3 -4 -6z"/>
<path d="M13155 7980 c-3 -4 6 -27 19 -51 13 -24 36 -100 51 -169 14 -69 28
-132 31 -141 3 -13 20 -1 66 47 39 41 65 61 71 55 12 -12 -18 -55 -72 -104
l-40 -36 55 -11 c54 -11 55 -11 77 16 66 83 75 99 66 115 -4 9 -5 19 -2 23 3
3 -3 6 -13 6 -11 0 -25 -5 -32 -12 -19 -19 -27 0 -9 20 23 26 21 44 -8 66 -13
10 -22 23 -18 29 4 6 0 8 -11 4 -9 -4 -15 -3 -12 2 3 4 -17 29 -44 53 -28 25
-50 43 -50 40 0 -3 -8 2 -17 10 -38 33 -98 54 -108 38z"/>
<path d="M12443 7720 c0 -25 2 -35 4 -22 2 12 2 32 0 45 -2 12 -4 2 -4 -23z"/>
<path d="M12455 7490 c3 -5 8 -10 11 -10 2 0 4 5 4 10 0 6 -5 10 -11 10 -5 0
-7 -4 -4 -10z"/>
<path d="M12456 7457 c3 -10 9 -15 12 -12 3 3 0 11 -7 18 -10 9 -11 8 -5 -6z"/>
<path d="M12561 7408 c-1 -29 0 -50 2 -48 8 9 15 100 8 100 -4 0 -8 -24 -10
-52z"/>
<path d="M13831 7378 c27 -37 49 -110 49 -160 0 -21 -11 -91 -25 -156 -14 -64
-27 -124 -28 -132 -2 -8 -6 -22 -11 -30 -7 -12 -6 -13 4 -3 8 7 15 22 17 34 2
12 12 34 24 50 11 16 17 29 12 29 -4 0 1 7 12 16 11 8 19 17 18 19 -4 9 37 93
53 105 8 8 22 26 30 42 8 15 19 28 25 28 5 0 22 11 37 25 15 14 34 25 43 25 9
0 19 6 22 14 4 11 -15 22 -76 42 -45 15 -115 39 -155 55 l-72 27 21 -30z"/>
<path d="M6285 7349 c-672 -224 -1153 -765 -1302 -1466 -25 -119 -27 -145 -28
-378 0 -223 3 -262 23 -365 26 -126 68 -266 115 -379 17 -41 26 -76 21 -78 -5
-2 -50 -30 -101 -63 l-92 -59 133 -208 c73 -114 135 -214 137 -221 3 -8 39 9
108 53 75 48 106 63 115 55 7 -5 17 -6 21 -2 5 4 5 1 0 -7 -10 -17 154 -184
173 -176 7 3 11 1 8 -4 -7 -10 29 -43 69 -64 17 -9 26 -16 21 -17 -5 0 10 -14
33 -30 23 -17 47 -28 53 -24 6 4 8 3 5 -3 -4 -6 4 -18 18 -27 14 -9 25 -14 25
-11 0 3 9 -4 20 -15 11 -11 27 -20 35 -20 8 0 15 -3 15 -8 0 -8 203 -113 230
-118 3 0 21 -8 40 -16 36 -17 55 -15 44 4 -4 7 -2 8 5 4 6 -4 9 -12 6 -17 -6
-8 27 -26 64 -33 9 -2 27 -7 41 -13 41 -17 131 -36 137 -29 3 3 11 2 17 -3 15
-12 110 -29 147 -26 16 1 29 -1 29 -6 0 -5 24 -9 53 -10 257 -5 262 -4 259 11
-3 12 -1 13 9 3 16 -16 115 -17 125 -1 5 7 3 8 -6 3 -9 -6 -11 -4 -5 4 5 9 10
10 18 2 14 -14 60 -15 52 -1 -3 6 1 7 10 4 20 -8 146 16 140 27 -3 4 3 6 13 4
27 -5 134 25 156 44 11 9 16 10 12 4 -5 -10 -1 -11 16 -4 13 5 22 14 21 19 -2
6 6 9 17 7 33 -6 82 15 75 33 -4 11 -2 12 7 5 16 -13 62 2 53 17 -3 5 0 7 9 4
17 -6 199 91 265 142 24 19 48 34 53 34 5 0 6 5 3 10 -5 9 1 12 21 9 9 -1 114
90 186 161 55 54 65 69 55 80 -10 12 -9 12 5 2 14 -11 21 -7 50 29 18 23 32
46 30 51 -1 5 2 7 8 3 5 -3 13 2 17 12 4 10 18 29 31 43 12 14 44 56 69 94 44
65 45 69 28 82 -10 8 -14 14 -9 14 6 0 15 -5 21 -11 8 -8 17 0 34 32 12 24 29
55 38 69 14 22 14 24 0 15 -8 -5 -7 -2 4 7 10 10 16 22 12 28 -3 5 -2 10 3 10
5 0 20 26 32 58 13 31 28 63 33 70 7 8 4 18 -7 31 -11 13 -14 21 -7 26 10 6
15 -1 12 -17 0 -5 3 -8 7 -8 5 0 23 46 39 103 38 124 43 148 34 142 -4 -2 -8
2 -8 10 0 8 4 12 8 9 5 -3 11 8 15 23 3 15 8 34 10 42 2 7 -1 21 -8 29 -8 10
-9 13 -2 9 16 -10 21 17 34 172 14 175 -9 506 -38 532 -4 4 -48 18 -98 33 -50
14 -98 28 -106 31 -12 5 -10 -13 10 -97 23 -95 25 -122 26 -348 0 -192 -3
-260 -16 -314 -9 -37 -15 -79 -13 -92 1 -13 -1 -24 -6 -24 -6 0 -21 -46 -23
-72 -1 -3 -4 -10 -8 -14 -5 -4 -8 -17 -8 -29 0 -11 -6 -27 -12 -34 -11 -12 -9
-13 7 -7 19 6 18 5 -2 -11 -12 -10 -23 -27 -25 -38 -2 -11 -7 -23 -12 -26 -4
-4 -2 -17 5 -30 11 -21 10 -22 -2 -12 -13 10 -20 2 -46 -51 -25 -49 -29 -66
-20 -76 9 -10 9 -11 -2 -5 -18 10 -33 -15 -19 -32 8 -11 7 -12 -7 -6 -14 5
-17 3 -12 -10 3 -9 1 -19 -5 -23 -7 -4 -8 -3 -4 4 4 7 5 12 3 12 -11 0 -47
-73 -41 -82 4 -6 2 -8 -3 -5 -9 6 -51 -42 -45 -50 1 -2 -10 -14 -24 -28 -14
-14 -22 -30 -18 -37 4 -6 3 -8 -4 -4 -6 3 -18 -4 -26 -16 -12 -17 -13 -25 -4
-37 10 -13 10 -14 -2 -4 -11 10 -31 -4 -109 -81 -53 -52 -109 -105 -125 -118
-16 -12 -38 -32 -50 -43 -12 -11 -26 -22 -31 -24 -29 -12 -54 -35 -48 -44 3
-6 1 -7 -6 -3 -6 4 -40 -10 -76 -33 -35 -23 -69 -41 -75 -41 -5 0 -10 -5 -10
-11 0 -5 4 -8 9 -4 5 3 12 1 16 -4 3 -6 -3 -8 -14 -6 -31 6 -61 -6 -61 -24 0
-12 -2 -13 -9 -3 -7 11 -17 9 -52 -9 -24 -13 -46 -24 -49 -24 -51 -13 -61 -19
-55 -33 4 -12 3 -13 -9 -3 -9 8 -21 9 -28 5 -7 -5 -15 -9 -18 -9 -37 -5 -109
-29 -104 -36 3 -5 -2 -6 -10 -3 -9 3 -24 3 -33 -1 -10 -4 -36 -10 -57 -12 -22
-2 -45 -11 -51 -20 -9 -11 -14 -13 -19 -4 -4 7 -21 9 -44 5 -72 -11 -128 -14
-237 -12 -60 1 -134 2 -162 2 -29 1 -53 5 -53 10 0 4 -18 6 -39 4 -22 -2 -37
0 -35 4 3 5 -4 8 -14 8 -30 0 -263 61 -295 77 -15 7 -32 11 -37 8 -6 -3 -10
-1 -10 5 0 6 -4 8 -10 5 -5 -3 -10 -1 -10 5 0 7 -6 10 -12 7 -7 -2 -12 -10
-10 -16 1 -7 -2 -10 -7 -6 -6 3 -8 11 -5 18 3 8 -23 26 -68 47 -40 19 -80 40
-88 46 -8 7 -21 14 -29 16 -7 2 -25 13 -39 26 -14 12 -31 21 -39 18 -7 -3 -15
0 -19 6 -5 7 -2 8 6 3 9 -5 11 -4 6 3 -4 7 -14 12 -22 12 -8 0 -14 3 -14 8 0
4 -9 13 -21 20 -17 11 -20 11 -14 0 3 -7 0 -5 -8 4 -8 10 -18 14 -22 10 -5 -4
-5 -2 -1 5 7 14 -50 60 -68 55 -6 -2 -8 0 -4 4 4 4 -32 47 -80 96 -47 49 -90
96 -95 104 -5 8 -13 12 -18 8 -5 -3 -8 -1 -7 4 5 15 -89 138 -103 135 -4 -2
-6 3 -3 11 3 8 -8 36 -25 63 -91 148 -175 367 -214 557 -19 96 -22 141 -21
331 0 189 3 235 23 324 104 486 368 872 774 1136 163 106 398 203 567 236 36
6 67 13 69 15 7 7 -153 179 -168 181 -9 1 -70 -16 -136 -38z m2459 -2187 c3
-5 -1 -9 -9 -9 -8 0 -12 4 -9 9 3 4 7 8 9 8 2 0 6 -4 9 -8z m-9 -131 c3 -5 2
-12 -3 -15 -5 -3 -9 1 -9 9 0 17 3 19 12 6z m-69 -203 c4 -6 3 -8 -4 -4 -5 3
-13 0 -15 -6 -3 -8 -6 -6 -6 5 -1 19 14 23 25 5z m-81 -227 c3 -5 2 -12 -3
-15 -5 -3 -9 1 -9 9 0 17 3 19 12 6z m-197 -106 c-3 -3 -9 2 -12 12 -6 14 -5
15 5 6 7 -7 10 -15 7 -18z m-3063 -84 c3 -5 2 -12 -3 -15 -5 -3 -9 1 -9 9 0
17 3 19 12 6z m25 -51 c0 -5 -5 -10 -11 -10 -5 0 -7 5 -4 10 3 6 8 10 11 10 2
0 4 -4 4 -10z m2784 -91 c-3 -5 -10 -7 -15 -3 -5 3 -7 10 -3 15 3 5 10 7 15 3
5 -3 7 -10 3 -15z m223 -4 c0 -6 -6 -12 -12 -12 -6 0 -12 6 -12 12 0 6 6 12
12 12 6 0 12 -6 12 -12z m-197 1 c0 -2 -8 -10 -17 -17 -16 -13 -17 -12 -4 4
13 16 21 21 21 13z m-91 -82 c-6 -8 -17 -14 -23 -14 -6 0 -3 5 7 11 9 6 14 15
11 21 -4 7 -2 8 5 4 9 -6 9 -11 0 -22z m141 -28 c0 -2 -8 -10 -17 -17 -16 -13
-17 -12 -4 4 13 16 21 21 21 13z m-2629 -23 c13 -16 12 -17 -3 -4 -10 7 -18
15 -18 17 0 8 8 3 21 -13z m264 -53 c3 -6 -1 -7 -9 -4 -18 7 -21 14 -7 14 6 0
13 -4 16 -10z m2285 -14 c0 -2 -8 -10 -17 -17 -16 -13 -17 -12 -4 4 13 16 21
21 21 13z m-225 -54 c-3 -3 -11 0 -18 7 -9 10 -8 11 6 5 10 -3 15 -9 12 -12z
m225 14 c0 -2 -7 -7 -16 -10 -8 -3 -12 -2 -9 4 6 10 25 14 25 6z m-2065 -104
c-3 -3 -11 0 -18 7 -9 10 -8 11 6 5 10 -3 15 -9 12 -12z m-161 -14 c-3 -4 -9
-8 -15 -8 -5 0 -9 4 -9 8 0 5 7 9 15 9 8 0 12 -4 9 -9z m1996 -26 c-21 -7 -23
-6 -26 10 -2 14 1 15 17 5 11 -7 15 -13 9 -15z m-1636 -30 c3 -5 -1 -9 -9 -9
-8 0 -12 4 -9 9 3 4 7 8 9 8 2 0 6 -4 9 -8z m172 -66 c0 -21 -3 -23 -18 -15
-22 12 -24 21 -3 12 9 -3 15 -2 14 3 -2 12 0 24 4 24 2 0 3 -11 3 -24z m77
-11 c-7 -21 -12 -19 -10 4 0 11 5 18 9 15 4 -3 5 -11 1 -19z m790 -2 c-3 -7
-6 -13 -8 -13 -2 0 -5 6 -8 13 -3 8 1 14 8 14 7 0 11 -6 8 -14z"/>
<path d="M13550 7366 c0 -2 7 -7 16 -10 8 -3 12 -2 9 4 -6 10 -25 14 -25 6z"/>
<path d="M13546 7328 c3 -5 10 -6 15 -3 13 9 11 12 -6 12 -8 0 -12 -4 -9 -9z"/>
<path d="M13491 7297 c-8 -10 -7 -14 2 -14 8 0 14 6 14 14 0 7 -1 13 -2 13 -2
0 -8 -6 -14 -13z"/>
<path d="M13530 7296 c0 -2 8 -10 18 -17 15 -13 16 -12 3 4 -13 16 -21 21 -21
13z"/>
<path d="M13494 7254 c5 -12 2 -15 -11 -10 -14 6 -15 4 -6 -4 8 -9 16 -9 30
-1 10 6 13 11 5 11 -7 0 -10 5 -7 10 3 6 1 10 -5 10 -7 0 -9 -7 -6 -16z"/>
<path d="M12458 7183 c7 -3 16 -2 19 1 4 3 -2 6 -13 5 -11 0 -14 -3 -6 -6z"/>
<path d="M13500 7165 c0 -5 5 -17 10 -25 5 -8 10 -10 10 -5 0 6 -5 17 -10 25
-5 8 -10 11 -10 5z"/>
<path d="M12453 7137 c0 -8 6 -14 14 -14 9 0 10 4 2 14 -6 7 -12 13 -14 13 -1
0 -2 -6 -2 -13z"/>
<path d="M12599 7078 c3 -44 1 -50 -13 -45 -9 4 -16 2 -16 -2 0 -16 28 -20 34
-5 9 22 7 92 -1 97 -5 3 -6 -18 -4 -45z"/>
<path d="M13449 7103 c-13 -16 -12 -17 4 -4 9 7 17 15 17 17 0 8 -8 3 -21 -13z"/>
<path d="M13478 7083 c7 -3 16 -2 19 1 4 3 -2 6 -13 5 -11 0 -14 -3 -6 -6z"/>
<path d="M13500 7041 c0 -7 -4 -9 -10 -6 -5 3 -10 1 -10 -4 0 -6 4 -11 9 -11
13 0 25 20 17 27 -3 4 -6 1 -6 -6z"/>
<path d="M12456 7032 c-3 -5 1 -9 9 -9 8 0 12 4 9 9 -3 4 -7 8 -9 8 -2 0 -6
-4 -9 -8z"/>
<path d="M12566 6983 c-6 -14 -5 -15 5 -6 7 7 10 15 7 18 -3 3 -9 -2 -12 -12z"/>
<path d="M13473 6985 c0 -6 6 -12 12 -12 6 0 12 6 12 12 0 6 -6 12 -12 12 -6
0 -12 -6 -12 -12z"/>
<path d="M12459 6921 c4 -49 7 -47 13 10 2 20 -1 36 -7 36 -6 0 -8 -19 -6 -46z"/>
<path d="M12603 6920 c0 -30 2 -43 4 -27 2 15 2 39 0 55 -2 15 -4 2 -4 -28z"/>
<path d="M6092 6868 c-9 -9 -7 -19 9 -45 21 -33 21 -34 3 -48 -17 -13 -22 -11
-45 17 -23 28 -29 30 -43 19 -14 -12 -14 -16 5 -43 12 -16 20 -30 18 -31 -2
-2 -11 -8 -20 -15 -14 -11 -20 -7 -38 23 -18 31 -23 34 -41 25 -20 -10 -19
-12 13 -62 18 -28 37 -53 42 -55 6 -2 52 24 103 57 l92 59 -33 53 c-37 57 -47
64 -65 46z"/>
<path d="M13765 6829 c-71 -73 -179 -110 -266 -90 -24 5 -45 9 -46 7 -1 -1 1
-15 5 -31 8 -28 13 -30 113 -51 94 -19 104 -19 107 -5 2 9 9 21 15 26 7 6 18
21 25 34 11 19 11 22 0 16 -7 -3 -5 0 5 8 9 8 17 19 17 26 0 6 5 11 10 11 6 0
10 5 10 12 0 6 11 26 26 45 34 44 27 42 -21 -8z"/>
<path d="M12603 6760 c0 -25 2 -35 4 -22 2 12 2 32 0 45 -2 12 -4 2 -4 -23z"/>
<path d="M12571 6694 c0 -11 3 -14 6 -6 3 7 2 16 -1 19 -3 4 -6 -2 -5 -13z"/>
<path d="M12595 6701 c-3 -5 -2 -12 3 -15 5 -3 9 1 9 9 0 17 -3 19 -12 6z"/>
<path d="M12466 6543 c-6 -14 -5 -15 5 -6 7 7 10 15 7 18 -3 3 -9 -2 -12 -12z"/>
<path d="M12570 6545 c0 -8 2 -15 4 -15 2 0 6 7 10 15 3 8 1 15 -4 15 -6 0
-10 -7 -10 -15z"/>
<path d="M9940 6490 c-13 -8 -12 -10 3 -10 9 0 17 5 17 10 0 12 -1 12 -20 0z"/>
<path d="M10370 6472 c0 -5 6 -25 14 -43 7 -19 30 -115 51 -214 20 -99 41
-184 45 -189 11 -11 196 12 235 30 17 8 23 12 14 10 -12 -3 -15 1 -12 15 3 10
-2 34 -11 53 -9 19 -16 37 -16 42 0 21 -95 155 -129 183 -46 38 -81 67 -98 80
-6 6 -24 13 -40 17 -15 4 -34 11 -40 17 -9 6 -13 6 -13 -1z"/>
<path d="M12463 6440 c0 -25 2 -35 4 -22 2 12 2 32 0 45 -2 12 -4 2 -4 -23z"/>
<path d="M13675 6471 c-3 -5 -1 -12 5 -16 5 -3 10 1 10 9 0 18 -6 21 -15 7z"/>
<path d="M9946 6461 c-8 -13 20 -45 32 -37 7 4 12 13 11 19 0 8 -2 8 -6 -1 -4
-10 -8 -10 -19 -1 -12 10 -12 14 -2 20 9 6 9 9 1 9 -6 0 -14 -4 -17 -9z"/>
<path d="M13640 6412 c0 -5 7 -9 15 -9 8 0 12 4 9 9 -3 4 -9 8 -15 8 -5 0 -9
-4 -9 -8z"/>
<path d="M13680 6399 c0 -5 5 -7 10 -4 6 3 10 8 10 11 0 2 -4 4 -10 4 -5 0
-10 -5 -10 -11z"/>
<path d="M12580 6386 c0 -8 4 -17 9 -20 5 -4 7 3 4 14 -6 23 -13 26 -13 6z"/>
<path d="M12465 6380 c3 -5 8 -10 11 -10 2 0 4 5 4 10 0 6 -5 10 -11 10 -5 0
-7 -4 -4 -10z"/>
<path d="M12273 6330 c-64 -36 -76 -49 -45 -49 9 0 29 -2 45 -4 15 -2 30 0 33
5 4 6 10 5 15 -3 10 -16 22 27 17 63 l-3 23 -62 -35z"/>
<path d="M13640 6339 c0 -5 5 -7 10 -4 6 3 10 8 10 11 0 2 -4 4 -10 4 -5 0
-10 -5 -10 -11z"/>
<path d="M13676 6282 c-2 -4 -1 -14 4 -22 7 -11 9 -9 7 8 -1 24 -3 26 -11 14z"/>
<path d="M13611 6259 c-1 -9 6 -22 15 -29 12 -11 18 -10 30 3 8 9 9 12 2 7
-18 -15 -28 -12 -38 13 -6 15 -9 17 -9 6z"/>
<path d="M9955 6200 c3 -5 8 -10 11 -10 2 0 4 5 4 10 0 6 -5 10 -11 10 -5 0
-7 -4 -4 -10z"/>
<path d="M13615 6200 c3 -5 14 -10 23 -10 15 0 15 2 2 10 -20 13 -33 13 -25 0z"/>
<path d="M9930 6193 c6 -3 16 -16 21 -30 9 -24 11 -25 28 -9 9 9 20 14 23 11
2 -3 5 1 5 9 0 18 -24 9 -32 -12 -5 -14 -8 -12 -18 8 -7 13 -18 25 -25 26 -7
1 -8 0 -2 -3z"/>
<path d="M7589 6016 c-207 -88 -475 -203 -595 -253 l-219 -93 -445 -401 c-245
-220 -458 -414 -475 -431 l-30 -30 45 23 c25 13 48 22 53 21 4 -1 7 2 7 8 0 5
6 10 14 10 22 0 136 51 132 59 -3 4 5 8 17 8 39 3 98 35 88 47 -7 8 -4 12 9
12 10 0 16 -5 12 -11 -3 -5 2 -3 13 5 10 8 20 14 22 12 2 -1 20 5 41 13 73 30
110 50 106 57 -3 4 2 5 11 2 8 -4 25 0 38 8 12 8 52 27 89 42 40 17 65 33 61
39 -4 6 -1 7 6 2 14 -8 91 23 91 37 0 5 4 7 9 3 5 -3 12 -1 16 5 4 6 10 8 15
5 5 -3 15 2 24 10 8 9 18 15 21 14 11 -4 145 56 145 64 0 5 -6 5 -12 1 -7 -4
-10 -4 -6 1 4 4 2 15 -4 24 -10 12 -7 12 8 -2 11 -9 24 -14 29 -10 4 5 5 2 1
-4 -5 -9 -2 -11 8 -7 9 3 16 12 16 20 0 8 6 11 15 8 9 -4 15 0 15 9 0 8 -7 20
-15 27 -19 15 -19 40 -2 64 9 12 12 35 9 64 -4 39 -2 44 12 39 10 -4 14 -3 11
3 -3 5 11 18 32 29 21 10 63 35 93 55 30 20 61 36 68 36 7 0 10 5 7 10 -3 6
-1 10 5 10 6 0 26 11 44 25 18 14 37 25 43 25 5 0 18 8 29 18 39 33 88 59 151
80 39 12 45 6 26 -28 -14 -24 -15 -25 -10 -2 4 18 2 22 -10 18 -8 -3 -22 -6
-31 -7 -11 0 -12 -2 -4 -6 6 -2 9 -10 5 -16 -4 -6 0 -8 10 -4 9 3 20 0 24 -7
7 -12 10 -12 21 0 7 7 12 16 12 19 -1 17 1 18 10 5 8 -13 10 -13 10 1 0 9 9
19 21 22 14 4 18 10 13 18 -5 9 -2 10 10 6 10 -4 15 -3 11 3 -3 6 -1 10 5 10
6 0 92 68 190 151 154 129 203 173 188 168 -2 -1 -172 -74 -379 -163z m-24
-139 c6 -5 3 -7 -6 -4 -9 3 -21 1 -26 -4 -6 -6 -10 -4 -10 5 0 8 4 13 9 10 4
-3 8 0 8 7 0 7 3 8 8 3 4 -5 12 -13 17 -17z m-56 -10 c-2 -1 -13 -9 -24 -17
-19 -14 -19 -14 -6 3 7 9 18 17 24 17 6 0 8 -1 6 -3z m-551 -427 c-7 -11 -17
-20 -22 -20 -5 0 -1 9 9 20 10 11 20 20 22 20 2 0 -2 -9 -9 -20z m-248 -134
c0 -2 -7 -7 -16 -10 -8 -3 -12 -2 -9 4 6 10 25 14 25 6z m-270 -190 c0 -2 -8
-10 -17 -17 -16 -13 -17 -12 -4 4 13 16 21 21 21 13z"/>
<path d="M13640 6170 c0 -5 5 -10 10 -10 6 0 10 5 10 10 0 6 -4 10 -10 10 -5
0 -10 -4 -10 -10z"/>
<path d="M9940 6115 c8 -11 15 -21 16 -23 1 -1 7 4 13 12 9 11 9 16 0 22 -8 4
-9 3 -5 -4 10 -16 -6 -15 -24 1 -12 10 -12 9 0 -8z"/>
<path d="M13606 6092 c-2 -4 -1 -14 4 -22 7 -11 9 -9 7 8 -1 24 -3 26 -11 14z"/>
<path d="M9955 6060 c-3 -6 1 -7 9 -4 18 7 21 14 7 14 -6 0 -13 -4 -16 -10z"/>
<path d="M12581 6044 c0 -11 3 -14 6 -6 3 7 2 16 -1 19 -3 4 -6 -2 -5 -13z"/>
<path d="M13587 6053 c-4 -3 -7 -11 -7 -17 0 -6 5 -5 12 2 6 6 9 14 7 17 -3 3
-9 2 -12 -2z"/>
<path d="M13610 6036 c0 -2 7 -9 15 -16 13 -11 14 -10 9 4 -5 14 -24 23 -24
12z"/>
<path d="M9940 6010 c6 -11 13 -20 16 -20 2 0 0 9 -6 20 -6 11 -13 20 -16 20
-2 0 0 -9 6 -20z"/>
<path d="M9960 6020 c0 -5 5 -10 10 -10 6 0 10 5 10 10 0 6 -4 10 -10 10 -5 0
-10 -4 -10 -10z"/>
<path d="M13585 6000 c4 -6 11 -8 16 -5 14 9 11 15 -7 15 -8 0 -12 -5 -9 -10z"/>
<path d="M12613 5960 c0 -25 2 -35 4 -22 2 12 2 32 0 45 -2 12 -4 2 -4 -23z"/>
<path d="M9960 5976 c0 -2 7 -9 15 -16 13 -11 14 -10 9 4 -5 14 -24 23 -24 12z"/>
<path d="M10006 5947 c3 -10 9 -15 12 -12 3 3 0 11 -7 18 -10 9 -11 8 -5 -6z"/>
<path d="M9946 5942 c-3 -5 1 -9 9 -9 8 0 12 4 9 9 -3 4 -7 8 -9 8 -2 0 -6 -4
-9 -8z"/>
<path d="M12585 5899 c-4 -6 -5 -12 -2 -15 2 -3 7 2 10 11 7 17 1 20 -8 4z"/>
<path d="M12595 5859 c-4 -6 -5 -12 -2 -15 2 -3 7 2 10 11 7 17 1 20 -8 4z"/>
<path d="M8954 5825 c13 -66 26 -200 26 -262 0 -34 5 -65 10 -68 6 -3 10 3 10
14 0 25 50 101 67 101 7 0 13 6 13 13 0 13 79 86 95 87 6 0 20 11 32 24 13 13
40 32 60 42 36 17 37 19 13 22 -14 2 -91 16 -173 33 -81 16 -150 29 -153 29
-4 0 -3 -16 0 -35z"/>
<path d="M9975 5840 c-3 -5 -1 -10 4 -10 6 0 11 5 11 10 0 6 -2 10 -4 10 -3 0
-8 -4 -11 -10z"/>
<path d="M10865 5825 c-71 -12 -176 -28 -232 -35 -64 -8 -103 -18 -103 -25 0
-7 54 -20 143 -34 121 -19 150 -20 194 -10 41 10 51 16 48 31 -2 10 2 18 10
18 8 0 21 14 30 30 9 17 22 30 30 30 7 0 17 5 20 10 7 12 18 13 -140 -15z"/>
<path d="M12570 5802 l5 -47 3 39 c2 21 0 42 -5 47 -4 4 -6 -13 -3 -39z"/>
<path d="M13654 5831 c3 -9 10 -35 16 -58 6 -24 13 -43 16 -43 3 0 3 9 -1 19
-4 13 1 24 17 35 12 9 18 16 13 16 -4 0 1 10 13 23 l22 23 -50 1 c-42 1 -50
-2 -46 -16z"/>
<path d="M10000 5816 c0 -2 8 -10 18 -17 15 -13 16 -12 3 4 -13 16 -21 21 -21
13z"/>
<path d="M9981 5794 c0 -11 3 -14 6 -6 3 7 2 16 -1 19 -3 4 -6 -2 -5 -13z"/>
<path d="M7390 5780 c-9 -6 -10 -10 -3 -10 6 0 15 5 18 10 8 12 4 12 -15 0z"/>
<path d="M9715 5741 c98 -24 115 -25 115 -6 0 12 -13 15 -57 15 -32 0 -76 2
-98 5 -22 3 -4 -4 40 -14z"/>
<path d="M9982 5731 c-10 -6 -10 -10 1 -20 12 -9 16 -8 20 3 7 19 -4 27 -21
17z"/>
<path d="M12615 5699 c-4 -6 -5 -12 -2 -15 2 -3 7 2 10 11 7 17 1 20 -8 4z"/>
<path d="M10017 5689 c7 -7 15 -10 18 -7 3 3 -2 9 -12 12 -14 6 -15 5 -6 -5z"/>
<path d="M9976 5681 c-19 -7 -19 -8 0 -13 13 -3 21 0 21 8 0 8 -1 14 -1 13 -1
0 -10 -4 -20 -8z"/>
<path d="M7346 5669 c4 -8 30 -6 38 2 3 3 -5 5 -19 5 -13 0 -22 -3 -19 -7z"/>
<path d="M9387 5659 c7 -7 15 -10 18 -7 3 3 -2 9 -12 12 -14 6 -15 5 -6 -5z"/>
<path d="M9335 5641 c-3 -5 -1 -12 5 -16 5 -3 10 1 10 9 0 18 -6 21 -15 7z"/>
<path d="M9457 5628 c20 -22 24 -23 16 -1 -4 11 -3 14 5 9 7 -4 12 -3 12 2 0
6 -11 9 -24 8 -23 -1 -23 -2 -9 -18z"/>
<path d="M9540 5640 c0 -5 5 -10 11 -10 5 0 7 5 4 10 -3 6 -8 10 -11 10 -2 0
-4 -4 -4 -10z"/>
<path d="M9381 5624 c0 -11 3 -14 6 -6 3 7 2 16 -1 19 -3 4 -6 -2 -5 -13z"/>
<path d="M9407 5626 c-4 -9 -2 -18 4 -21 5 -4 9 -3 8 2 -4 20 2 27 12 13 9
-12 10 -12 7 -1 -6 21 -24 25 -31 7z"/>
<path d="M9585 5620 c-4 -6 -11 -7 -17 -4 -7 4 -8 2 -4 -5 6 -9 12 -9 24 1 10
7 19 14 21 15 2 2 -1 3 -7 3 -6 0 -14 -5 -17 -10z"/>
<path d="M12565 5589 c-4 -6 -5 -12 -2 -15 2 -3 7 2 10 11 7 17 1 20 -8 4z"/>
<path d="M7239 5577 c6 -8 7 -18 3 -22 -4 -5 -1 -5 6 -1 10 6 10 11 1 22 -6 8
-14 14 -16 14 -3 0 0 -6 6 -13z"/>
<path d="M9780 5570 c6 -11 15 -20 20 -20 6 0 2 9 -7 20 -10 11 -19 20 -21 20
-1 0 2 -9 8 -20z"/>
<path d="M12597 5573 c-4 -3 -7 -11 -7 -17 0 -6 5 -5 12 2 6 6 9 14 7 17 -3 3
-9 2 -12 -2z"/>
<path d="M9874 5563 c4 -7 2 -13 -4 -13 -6 0 -4 -7 5 -16 14 -14 18 -15 28 -3
7 8 10 13 8 11 -2 -1 -13 6 -24 15 -11 10 -17 12 -13 6z"/>
<path d="M7060 5538 c0 -12 1 -19 3 -17 1 2 9 12 16 22 12 14 11 17 -3 17 -10
0 -16 -8 -16 -22z"/>
<path d="M9930 5556 c0 -2 8 -10 18 -17 15 -13 16 -12 3 4 -13 16 -21 21 -21
13z"/>
<path d="M7146 5512 c-3 -5 1 -9 9 -9 8 0 12 4 9 9 -3 4 -7 8 -9 8 -2 0 -6 -4
-9 -8z"/>
<path d="M9400 5510 c0 -5 5 -10 11 -10 5 0 7 5 4 10 -3 6 -8 10 -11 10 -2 0
-4 -4 -4 -10z"/>
<path d="M9545 5491 c-3 -5 0 -13 6 -17 8 -5 9 -3 4 6 -6 10 -1 12 18 8 15 -3
24 -1 21 3 -7 12 -41 11 -49 0z"/>
<path d="M10170 5496 c0 -2 8 -10 18 -17 15 -13 16 -12 3 4 -13 16 -21 21 -21
13z"/>
<path d="M9394 5482 c4 -3 14 -7 22 -8 9 -1 13 0 10 4 -4 3 -14 7 -22 8 -9 1
-13 0 -10 -4z"/>
<path d="M10242 5477 c-8 -10 -5 -16 11 -27 20 -12 21 -12 9 3 -8 9 -11 21 -7
27 9 14 0 13 -13 -3z"/>
<path d="M7023 5424 c0 -17 2 -22 7 -13 5 6 6 18 3 26 -8 19 -10 16 -10 -13z"/>
<path d="M9850 5436 c0 -2 7 -7 16 -10 8 -3 12 -2 9 4 -6 10 -25 14 -25 6z"/>
<path d="M10490 5431 c0 -5 7 -12 16 -15 14 -5 15 -4 4 9 -14 17 -20 19 -20 6z"/>
<path d="M9770 5406 c0 -2 7 -7 16 -10 8 -3 12 -2 9 4 -6 10 -25 14 -25 6z"/>
<path d="M9898 5403 c7 -3 16 -2 19 1 4 3 -2 6 -13 5 -11 0 -14 -3 -6 -6z"/>
<path d="M6990 5360 c0 -5 5 -10 11 -10 5 0 7 5 4 10 -3 6 -8 10 -11 10 -2 0
-4 -4 -4 -10z"/>
<path d="M10285 5350 c-19 -8 -19 -9 3 -9 12 -1 22 4 22 9 0 6 -1 10 -2 9 -2
0 -12 -4 -23 -9z"/>
<path d="M12554 5348 c-5 -7 -2 -8 6 -3 10 6 12 4 7 -8 -3 -9 -1 -19 5 -23 7
-5 8 -2 3 6 -6 10 -4 12 8 7 11 -4 14 -2 11 8 -7 18 -32 27 -40 13z"/>
<path d="M10162 5341 c-11 -7 -11 -9 0 -14 9 -3 15 1 15 9 0 8 -1 14 -1 14 -1
0 -7 -4 -14 -9z"/>
<path d="M10653 5335 c-3 -9 -3 -18 -1 -21 3 -3 8 4 11 16 6 23 -1 27 -10 5z"/>
<path d="M12515 5330 c-3 -5 1 -10 9 -10 9 0 16 5 16 10 0 6 -4 10 -9 10 -6 0
-13 -4 -16 -10z"/>
<path d="M10295 5320 c3 -5 11 -10 16 -10 6 0 7 5 4 10 -3 6 -11 10 -16 10 -6
0 -7 -4 -4 -10z"/>
<path d="M10250 5316 c0 -2 7 -7 16 -10 8 -3 12 -2 9 4 -6 10 -25 14 -25 6z"/>
<path d="M10750 5311 c0 -5 -7 -17 -16 -26 -13 -13 -14 -19 -5 -28 10 -9 12
-9 9 3 -2 8 2 14 7 13 6 -1 11 10 11 23 1 13 0 24 -2 24 -2 0 -4 -4 -4 -9z"/>
<path d="M10685 5300 c-16 -7 -17 -9 -3 -9 9 -1 20 4 23 9 7 11 7 11 -20 0z"/>
<path d="M10450 5271 c0 -6 4 -13 10 -16 6 -3 7 1 4 9 -7 18 -14 21 -14 7z"/>
<path d="M9870 5204 c0 -8 5 -12 10 -9 6 4 8 11 5 16 -9 14 -15 11 -15 -7z"/>
<path d="M9900 5195 c-11 -13 -10 -14 4 -9 9 3 16 10 16 15 0 13 -6 11 -20 -6z"/>
<path d="M9829 5168 c-7 -25 -4 -34 13 -34 17 0 17 2 4 12 -9 6 -13 14 -9 17
3 4 3 7 0 7 -4 0 -7 -1 -8 -2z"/>
<path d="M9901 5137 c-13 -21 -12 -21 5 -5 10 10 16 20 13 22 -3 3 -11 -5 -18
-17z"/>
<path d="M9813 5095 c0 -8 4 -12 9 -9 5 3 6 10 3 15 -9 13 -12 11 -12 -6z"/>
<path d="M9836 5083 c-6 -14 -5 -15 5 -6 7 7 10 15 7 18 -3 3 -9 -2 -12 -12z"/>
<path d="M9845 5060 c-3 -6 1 -7 9 -4 18 7 21 14 7 14 -6 0 -13 -4 -16 -10z"/>
<path d="M9805 5029 c-4 -6 -5 -12 -2 -15 2 -3 7 2 10 11 7 17 1 20 -8 4z"/>
<path d="M9815 5002 c-5 -4 -12 -16 -13 -27 -4 -23 0 -20 17 13 12 24 12 26
-4 14z"/>
<path d="M9760 4981 c-8 -6 -19 -7 -25 -3 -5 3 -4 -2 4 -11 16 -21 13 -21 34
3 18 21 12 26 -13 11z"/>
<path d="M10340 4898 c-31 -47 -31 -48 -16 -42 8 3 17 12 20 20 3 8 12 11 22
7 13 -5 15 -3 9 7 -6 10 -4 11 6 4 22 -14 36 -13 36 2 0 8 -5 14 -11 14 -6 0
-20 3 -31 6 -14 3 -25 -2 -35 -18z"/>
<path d="M9773 4895 c0 -8 4 -12 9 -9 5 3 6 10 3 15 -9 13 -12 11 -12 -6z"/>
<path d="M10291 4833 c-1 -17 16 -25 25 -12 4 7 3 9 -4 5 -5 -3 -13 0 -15 6
-4 9 -6 10 -6 1z"/>
<path d="M9644 4803 c2 -10 5 -16 8 -13 3 3 16 -4 29 -15 13 -11 18 -13 12 -4
-9 11 -10 18 -1 27 8 8 6 10 -8 8 -11 -2 -24 1 -31 6 -8 6 -11 4 -9 -9z"/>
<path d="M5513 4752 c-50 -31 -92 -60 -92 -65 -1 -4 2 -15 8 -24 8 -15 13 -15
48 8 21 14 51 34 67 44 l28 19 -42 -83 c-39 -79 -40 -84 -25 -107 8 -13 18
-24 22 -24 17 0 183 114 183 126 0 30 -30 25 -89 -15 -34 -22 -61 -37 -61 -34
0 4 18 40 41 80 40 74 43 99 15 122 -9 8 -36 -4 -103 -47z"/>
<path d="M9638 4753 c6 -2 9 -10 6 -15 -4 -7 -2 -8 5 -4 13 9 5 26 -12 25 -9
0 -8 -2 1 -6z"/>
<path d="M9683 4725 c0 -8 4 -12 9 -9 5 3 6 10 3 15 -9 13 -12 11 -12 -6z"/>
<path d="M9614 4719 c-3 -6 -2 -15 4 -21 6 -6 12 -6 17 3 6 8 4 10 -5 4 -10
-6 -12 -4 -7 8 7 19 2 23 -9 6z"/>
<path d="M9653 4685 c0 -8 4 -12 9 -9 5 3 6 10 3 15 -9 13 -12 11 -12 -6z"/>
<path d="M9600 4662 c0 -12 3 -12 15 -2 8 7 15 13 15 15 0 1 -7 2 -15 2 -8 0
-15 -7 -15 -15z"/>
<path d="M14844 4608 c-91 -60 -91 -61 -78 -87 31 -59 8 -157 -46 -201 -18
-14 -16 -19 43 -112 34 -54 67 -98 73 -98 25 0 106 96 141 167 36 72 38 81 37
172 0 80 -4 106 -25 156 -14 33 -32 61 -40 62 -8 1 -55 -26 -105 -59z"/>
<path d="M9631 4627 c-13 -21 -12 -21 5 -5 10 10 16 20 13 22 -3 3 -11 -5 -18
-17z"/>
<path d="M9552 4614 c2 -16 7 -20 22 -16 15 4 17 7 6 10 -8 3 -18 10 -22 16
-4 6 -6 1 -6 -10z"/>
<path d="M9498 4494 c-6 -22 12 -28 29 -9 4 4 3 5 -4 1 -7 -3 -13 1 -15 11 -3
15 -5 15 -10 -3z"/>
<path d="M12342 4494 c-7 -8 -8 -14 -3 -14 10 0 25 19 20 25 -2 1 -10 -3 -17
-11z"/>
<path d="M12280 4444 c0 -8 5 -12 10 -9 6 4 8 11 5 16 -9 14 -15 11 -15 -7z"/>
<path d="M12405 4402 c-15 -11 -17 -32 -2 -26 8 3 14 11 14 19 0 8 -1 15 -1
15 -1 0 -5 -4 -11 -8z"/>
<path d="M7588 4338 c-96 -31 -112 -44 -84 -67 11 -9 29 -6 81 14 37 14 70 25
72 25 3 0 -18 -26 -46 -59 -55 -63 -59 -72 -38 -90 11 -8 32 -5 87 14 40 14
75 24 76 22 2 -2 -21 -28 -51 -57 -58 -57 -64 -70 -42 -89 11 -8 30 7 90 73
43 46 77 88 77 93 0 5 -6 17 -13 26 -11 16 -17 16 -86 -8 -78 -26 -93 -30 -76
-17 6 4 32 30 59 59 41 45 46 54 36 72 -14 27 -26 26 -142 -11z"/>
<path d="M12309 4331 c26 -24 41 -27 41 -9 0 6 -3 8 -7 5 -3 -4 -18 0 -32 9
l-26 15 24 -20z"/>
<path d="M12227 4325 c3 -8 9 -12 14 -9 12 7 11 11 -5 17 -10 4 -13 1 -9 -8z"/>
<path d="M12185 4250 c3 -5 8 -10 11 -10 2 0 4 5 4 10 0 6 -5 10 -11 10 -5 0
-7 -4 -4 -10z"/>
<path d="M12210 4246 c0 -2 7 -7 16 -10 8 -3 12 -2 9 4 -6 10 -25 14 -25 6z"/>
<path d="M12200 4220 c0 -5 5 -10 11 -10 5 0 7 5 4 10 -3 6 -8 10 -11 10 -2 0
-4 -4 -4 -10z"/>
<path d="M12320 4209 c0 -5 5 -7 10 -4 6 3 10 8 10 11 0 2 -4 4 -10 4 -5 0
-10 -5 -10 -11z"/>
<path d="M12270 4132 c0 -5 7 -9 15 -9 8 0 12 4 9 9 -3 4 -9 8 -15 8 -5 0 -9
-4 -9 -8z"/>
<path d="M12245 4121 c-3 -5 -2 -12 3 -15 5 -3 9 1 9 9 0 17 -3 19 -12 6z"/>
<path d="M12120 4110 c-9 -6 -10 -10 -3 -10 6 0 15 5 18 10 8 12 4 12 -15 0z"/>
<path d="M13519 4041 c-32 -48 -40 -69 -28 -76 5 -4 9 -3 8 2 -4 25 3 41 18
39 10 0 18 4 18 11 0 17 25 41 25 25 0 -7 -5 -12 -11 -12 -5 0 -7 -5 -3 -11 5
-8 10 -6 16 5 5 9 13 14 18 11 5 -3 8 3 7 14 -2 36 -41 31 -68 -8z"/>
<path d="M12140 4056 c0 -9 5 -16 10 -16 6 0 10 4 10 9 0 6 -4 13 -10 16 -5 3
-10 -1 -10 -9z"/>
<path d="M5360 4039 c-10 -6 -11 -9 -2 -9 6 0 12 -5 12 -11 0 -5 -4 -8 -8 -5
-5 3 -9 -1 -9 -9 0 -23 13 -18 25 10 12 27 4 39 -18 24z"/>
<path d="M12109 4033 c-13 -16 -12 -17 4 -4 16 13 21 21 13 21 -2 0 -10 -8
-17 -17z"/>
<path d="M12131 4021 c-8 -5 -9 -11 -3 -15 5 -3 12 1 16 9 6 17 6 18 -13 6z"/>
<path d="M12167 3966 c-4 -10 -1 -13 8 -9 8 3 12 9 9 14 -7 12 -11 11 -17 -5z"/>
<path d="M13460 3960 c0 -5 5 -10 11 -10 5 0 7 5 4 10 -3 6 -8 10 -11 10 -2 0
-4 -4 -4 -10z"/>
<path d="M12169 3933 c-13 -16 -12 -17 4 -4 16 13 21 21 13 21 -2 0 -10 -8
-17 -17z"/>
<path d="M12061 3926 c-9 -10 -7 -17 6 -27 16 -12 17 -12 6 2 -10 12 -10 18
-1 27 7 7 9 12 6 12 -3 0 -11 -6 -17 -14z"/>
<path d="M13405 3890 c-3 -6 1 -7 9 -4 18 7 21 14 7 14 -6 0 -13 -4 -16 -10z"/>
<path d="M12016 3861 c-19 -7 -19 -8 0 -13 13 -3 21 0 21 8 0 8 -1 14 -1 13
-1 0 -10 -4 -20 -8z"/>
<path d="M12086 3767 c3 -10 9 -15 12 -12 3 3 0 11 -7 18 -10 9 -11 8 -5 -6z"/>
<path d="M11943 3723 c4 -3 -1 -16 -10 -27 -18 -21 -18 -21 4 -2 20 16 23 36
6 36 -4 0 -3 -3 0 -7z"/>
<path d="M12016 3653 c-6 -14 -5 -15 5 -6 7 7 10 15 7 18 -3 3 -9 -2 -12 -12z"/>
<path d="M13233 3655 c-8 -22 5 -31 20 -15 10 10 9 11 -2 5 -11 -6 -13 -4 -8
8 3 10 4 17 1 17 -2 0 -7 -7 -11 -15z"/>
<path d="M13187 3592 c-22 -24 -21 -32 3 -32 11 0 20 7 20 16 0 8 4 12 10 9 6
-3 7 1 4 9 -8 21 -17 20 -37 -2z"/>
<path d="M11827 3485 c-4 -8 -2 -17 3 -20 6 -4 10 3 10 14 0 25 -6 27 -13 6z"/>
<path d="M11955 3450 c-4 -6 -3 -16 3 -22 6 -6 12 -6 17 2 4 6 3 16 -3 22 -6
6 -12 6 -17 -2z"/>
<path d="M11926 3431 c-3 -5 1 -11 9 -14 9 -4 12 -1 8 9 -6 16 -10 17 -17 5z"/>
<path d="M13059 3423 c-13 -16 -12 -17 4 -4 16 13 21 21 13 21 -2 0 -10 -8
-17 -17z"/>
<path d="M11785 3390 c3 -5 8 -10 11 -10 2 0 4 5 4 10 0 6 -5 10 -11 10 -5 0
-7 -4 -4 -10z"/>
<path d="M11820 3371 c0 -6 4 -13 10 -16 6 -3 7 1 4 9 -7 18 -14 21 -14 7z"/>
<path d="M13020 3365 c-11 -13 -15 -13 -22 -3 -8 10 -9 10 -6 -1 5 -17 38 -24
35 -8 -1 7 4 11 11 9 8 -1 11 2 7 8 -8 13 -10 13 -25 -5z"/>
<path d="M11766 3344 c-18 -26 -18 -26 3 -15 11 7 21 18 21 26 0 20 -2 19 -24
-11z"/>
<path d="M13025 3327 l-20 -20 25 13 c32 16 33 17 23 23 -4 2 -17 -5 -28 -16z"/>
<path d="M11861 3321 c-9 -6 -10 -11 -2 -15 6 -4 11 -2 11 4 0 6 5 8 12 4 7
-4 8 -3 4 4 -8 14 -7 14 -25 3z"/>
<path d="M11864 3242 c3 -6 -6 -20 -20 -31 -15 -12 -22 -21 -16 -21 6 0 14 5
18 11 4 8 9 7 16 -2 8 -11 9 -10 5 2 -3 9 -1 21 5 27 6 6 6 12 -3 17 -7 5 -10
4 -5 -3z"/>
<path d="M12967 3236 c-4 -10 -3 -15 3 -11 6 3 10 1 10 -6 0 -7 3 -10 6 -6 3
3 2 13 -4 22 -8 16 -9 16 -15 1z"/>
<path d="M11727 3226 c-4 -10 -1 -13 8 -10 10 4 12 0 8 -15 -3 -12 -10 -21
-16 -21 -6 0 -8 -2 -5 -5 11 -11 35 7 33 26 -2 28 -21 45 -28 25z"/>
<path d="M12967 3179 c4 -13 8 -18 11 -10 2 7 -1 18 -6 23 -8 8 -9 4 -5 -13z"/>
<path d="M11801 3154 c-18 -21 -6 -30 14 -11 8 9 15 18 15 21 0 11 -15 5 -29
-10z"/>
<path d="M11760 3135 c0 -18 22 -34 39 -27 14 5 15 4 1 -14 -14 -18 -14 -18 2
-5 20 15 14 35 -8 27 -7 -3 -18 3 -23 12 -6 9 -11 12 -11 7z"/>
<path d="M13003 3103 c4 -3 1 -13 -6 -22 -11 -14 -10 -14 5 -2 16 12 16 31 1
31 -4 0 -3 -3 0 -7z"/>
<path d="M11645 3080 c-3 -5 -1 -10 4 -10 6 0 11 5 11 10 0 6 -2 10 -4 10 -3
0 -8 -4 -11 -10z"/>
<path d="M11761 3074 c0 -11 3 -14 6 -6 3 7 2 16 -1 19 -3 4 -6 -2 -5 -13z"/>
<path d="M12935 3061 c-3 -5 -2 -12 3 -15 5 -3 9 1 9 9 0 17 -3 19 -12 6z"/>
<path d="M11650 3036 c0 -2 8 -10 18 -17 15 -13 16 -12 3 4 -13 16 -21 21 -21
13z"/>
<path d="M11765 3029 c-4 -6 -5 -12 -2 -15 2 -3 7 2 10 11 7 17 1 20 -8 4z"/>
<path d="M11610 3000 c-12 -7 -10 -9 7 -7 12 0 19 5 17 9 -6 10 -6 10 -24 -2z"/>
<path d="M12910 2978 c0 -4 4 -8 9 -8 6 0 12 4 15 8 3 5 -1 9 -9 9 -8 0 -15
-4 -15 -9z"/>
<path d="M12637 2854 c-22 -30 -21 -34 6 -34 12 0 41 -9 65 -20 23 -10 42 -17
42 -15 0 3 9 -4 20 -15 11 -11 25 -20 31 -20 5 0 7 -6 3 -12 -4 -8 -3 -10 2
-5 5 5 10 13 10 18 1 5 2 13 3 18 0 5 9 12 19 15 9 3 5 4 -10 2 -15 -2 -25 1
-22 5 3 5 14 9 25 9 10 0 19 5 19 11 0 5 -5 7 -12 3 -7 -4 -8 -3 -4 5 6 9 11
9 21 1 8 -7 15 -7 19 -1 4 5 -19 15 -51 21 -32 6 -83 17 -113 24 -54 12 -57
11 -73 -10z"/>
<path d="M11615 2789 c-4 -6 -4 -13 -1 -16 3 -4 6 -1 6 6 0 7 5 9 12 5 7 -4 8
-3 4 4 -9 15 -13 15 -21 1z"/>
<path d="M11502 2768 c-7 -7 -12 -18 -12 -24 0 -18 17 -26 26 -13 4 8 3 9 -4
5 -7 -4 -12 -1 -12 9 0 9 4 14 8 11 5 -3 9 1 9 9 0 18 0 18 -15 3z"/>
<path d="M11600 2736 c0 -8 4 -17 9 -20 5 -4 7 3 4 14 -6 23 -13 26 -13 6z"/>
<path d="M12540 2701 c0 -6 4 -13 10 -16 6 -3 7 1 4 9 -7 18 -14 21 -14 7z"/>
<path d="M11450 2677 c0 -2 6 -10 14 -16 11 -9 16 -9 22 1 4 7 4 10 -1 6 -4
-4 -14 -3 -22 3 -7 6 -13 9 -13 6z"/>
<path d="M12540 2666 c0 -2 7 -7 16 -10 8 -3 12 -2 9 4 -6 10 -25 14 -25 6z"/>
<path d="M12513 2653 c-17 -6 -17 -20 0 -26 8 -3 13 3 13 14 0 11 0 19 -1 18
0 0 -6 -3 -12 -6z"/>
<path d="M11540 2625 c-11 -13 -10 -14 4 -9 9 3 16 10 16 15 0 13 -6 11 -20
-6z"/>
<path d="M11550 2606 c0 -2 8 -10 18 -17 15 -13 16 -12 3 4 -13 16 -21 21 -21
13z"/>
<path d="M11417 2589 c7 -7 15 -10 18 -7 3 3 -2 9 -12 12 -14 6 -15 5 -6 -5z"/>
<path d="M12490 2576 c0 -2 8 -10 18 -17 15 -13 16 -12 3 4 -13 16 -21 21 -21
13z"/>
<path d="M11410 2556 c0 -2 8 -10 18 -17 15 -13 16 -12 3 4 -13 16 -21 21 -21
13z"/>
<path d="M12494 2543 c10 -13 23 -20 29 -16 6 4 8 -2 4 -17 -4 -16 -3 -20 5
-12 6 6 8 18 4 28 -4 9 -9 14 -13 10 -3 -3 -16 2 -27 11 -21 18 -21 18 -2 -4z"/>
<path d="M11386 2508 c3 -5 10 -6 15 -3 13 9 11 12 -6 12 -8 0 -12 -4 -9 -9z"/>
<path d="M12467 2499 c7 -7 15 -10 18 -7 3 3 -2 9 -12 12 -14 6 -15 5 -6 -5z"/>
<path d="M11444 2439 c-4 -7 -3 -9 4 -5 5 3 13 0 15 -6 4 -9 6 -10 6 -1 1 17
-16 25 -25 12z"/>
<path d="M12500 2431 c0 -5 5 -13 10 -16 6 -3 10 -2 10 4 0 5 -4 13 -10 16 -5
3 -10 2 -10 -4z"/>
<path d="M12500 2380 c0 -5 5 -10 11 -10 5 0 7 5 4 10 -3 6 -8 10 -11 10 -2 0
-4 -4 -4 -10z"/>
<path d="M11440 2371 c0 -6 4 -13 10 -16 6 -3 7 1 4 9 -7 18 -14 21 -14 7z"/>
<path d="M11329 2358 c-8 -27 -6 -38 5 -29 7 6 17 7 22 3 4 -4 2 1 -5 11 -12
16 -20 21 -22 15z"/>
<path d="M12480 2331 c0 -6 4 -12 8 -15 5 -3 9 1 9 9 0 8 -4 15 -9 15 -4 0 -8
-4 -8 -9z"/>
<path d="M11432 2321 c-11 -7 -11 -9 2 -14 10 -4 16 -1 16 8 0 17 -1 17 -18 6z"/>
<path d="M12425 2319 c-4 -6 -5 -12 -2 -15 2 -3 7 2 10 11 7 17 1 20 -8 4z"/>
<path d="M11361 2303 c0 -11 3 -13 6 -5 2 6 9 10 14 6 5 -3 9 0 9 5 0 6 -7 11
-15 11 -8 0 -15 -8 -14 -17z"/>
<path d="M12477 2289 c7 -7 15 -10 18 -7 3 3 -2 9 -12 12 -14 6 -15 5 -6 -5z"/>
<path d="M12438 2283 c7 -3 16 -2 19 1 4 3 -2 6 -13 5 -11 0 -14 -3 -6 -6z"/>
<path d="M12415 2260 c3 -5 8 -10 11 -10 2 0 4 5 4 10 0 6 -5 10 -11 10 -5 0
-7 -4 -4 -10z"/>
<path d="M11246 2243 c-6 -14 -5 -15 5 -6 7 7 10 15 7 18 -3 3 -9 -2 -12 -12z"/>
<path d="M11360 2256 c0 -2 7 -7 16 -10 8 -3 12 -2 9 4 -6 10 -25 14 -25 6z"/>
<path d="M12449 2213 c-8 -9 -9 -14 -2 -10 6 4 13 2 15 -5 3 -8 7 -6 11 5 9
23 -8 30 -24 10z"/>
<path d="M11361 2184 c0 -11 3 -14 6 -6 3 7 2 16 -1 19 -3 4 -6 -2 -5 -13z"/>
<path d="M11227 2179 c7 -7 15 -10 18 -7 3 3 -2 9 -12 12 -14 6 -15 5 -6 -5z"/>
<path d="M11263 2160 c-1 -11 2 -20 7 -20 4 0 7 7 6 15 -3 23 -12 26 -13 5z"/>
<path d="M11218 2138 c-10 -10 -14 -18 -9 -18 10 0 36 29 30 34 -2 1 -12 -6
-21 -16z"/>
<path d="M11310 2130 c-9 -6 -10 -10 -3 -10 6 0 15 5 18 10 8 12 4 12 -15 0z"/>
<path d="M12088 2115 c-22 -30 -24 -56 -2 -29 8 10 13 13 9 7 -3 -7 -1 -13 4
-13 6 0 11 5 11 11 0 7 9 9 21 6 12 -3 18 -3 15 0 -3 4 0 13 7 21 10 13 9 14
-3 10 -8 -3 -22 -2 -30 2 -10 5 -21 0 -32 -15z"/>
<path d="M11235 2120 c-3 -5 -1 -10 4 -10 6 0 11 5 11 10 0 6 -2 10 -4 10 -3
0 -8 -4 -11 -10z"/>
<path d="M11275 2090 c-3 -6 1 -7 9 -4 18 7 21 14 7 14 -6 0 -13 -4 -16 -10z"/>
<path d="M11155 2031 c-3 -5 -2 -12 3 -15 5 -3 9 1 9 9 0 17 -3 19 -12 6z"/>
<path d="M12025 2029 c-4 -6 -5 -12 -2 -15 2 -3 7 2 10 11 7 17 1 20 -8 4z"/>
<path d="M9995 1289 c-4 -5 0 -18 9 -28 15 -17 14 -19 -25 -30 -53 -16 -39
-33 16 -21 22 5 55 10 73 10 17 0 32 5 32 10 0 6 -16 10 -36 10 -31 0 -35 2
-24 15 7 8 10 22 6 30 -6 17 -42 20 -51 4z"/>
<path d="M9955 1187 c-97 -37 -145 -99 -147 -188 -1 -27 1 -52 4 -55 13 -12
155 -24 213 -18 68 7 201 47 229 69 24 18 17 46 -26 111 -46 68 -96 94 -178
93 -36 0 -79 -6 -95 -12z m40 -82 c30 -30 31 -54 4 -89 -52 -66 -153 -1 -114
74 24 47 72 54 110 15z m189 9 c34 -33 8 -82 -38 -70 -33 8 -43 42 -20 67 21
23 37 24 58 3z"/>
<path d="M10279 1170 l-11 -31 -24 22 c-19 18 -27 20 -36 11 -9 -9 -6 -18 14
-39 14 -16 31 -38 37 -50 7 -13 17 -20 26 -17 12 5 12 10 2 32 -17 34 -11 58
15 65 21 6 21 28 0 35 -7 2 -17 -10 -23 -28z"/>
<path d="M7146 1164 c-3 -9 -6 -38 -6 -65 0 -50 0 -50 -22 -35 -49 35 -129 13
-157 -41 -16 -31 -14 -119 4 -153 30 -57 120 -77 156 -34 11 14 15 13 30 -8
15 -19 22 -21 36 -12 16 10 18 30 21 165 1 85 0 164 -3 177 -6 26 -49 31 -59
6z m-27 -160 c49 -63 4 -160 -62 -135 -16 6 -29 23 -37 45 -28 86 48 154 99
90z"/>
<path d="M7780 1165 c-25 -30 15 -70 45 -45 20 16 19 46 -1 54 -23 9 -30 8
-44 -9z"/>
<path d="M8917 1174 c-4 -4 -7 -34 -7 -66 0 -59 0 -59 -22 -44 -34 24 -102 20
-133 -6 -53 -46 -53 -164 0 -217 31 -32 104 -37 131 -9 16 16 18 15 34 -4 11
-14 23 -19 34 -15 15 6 16 26 14 184 -3 171 -4 178 -23 181 -12 2 -24 0 -28
-4z m-34 -161 c58 -65 0 -183 -69 -138 -25 16 -40 70 -29 104 15 50 67 67 98
34z"/>
<path d="M9127 1174 c-4 -4 -7 -83 -7 -174 0 -136 3 -170 15 -180 18 -15 45
-6 45 14 0 11 8 10 39 -7 37 -21 42 -21 82 -7 58 21 82 65 76 144 -3 51 -8 63
-35 87 -37 33 -85 38 -132 14 l-29 -15 -3 62 c-3 55 -6 63 -23 66 -12 2 -24 0
-28 -4z m167 -166 c25 -35 20 -94 -9 -123 -29 -30 -35 -31 -69 -4 -52 41 -27
149 34 149 18 0 34 -8 44 -22z"/>
<path d="M10466 1165 c-8 -9 -18 -31 -22 -50 -3 -19 -12 -35 -18 -35 -18 0
-35 -21 -29 -36 3 -8 14 -14 24 -14 17 0 19 -8 19 -93 0 -105 14 -141 47 -121
15 9 18 27 21 113 3 101 3 101 28 101 21 0 25 4 22 23 -2 14 -11 23 -26 25
-17 3 -22 9 -20 25 2 17 11 23 36 25 36 4 54 28 31 43 -23 14 -96 10 -113 -6z"/>
<path d="M11610 1166 c-27 -33 18 -72 48 -42 13 13 14 20 6 34 -15 23 -38 26
-54 8z"/>
<path d="M11726 1164 c-3 -9 -6 -87 -6 -174 0 -132 3 -160 16 -171 24 -20 48
1 52 47 3 38 17 64 33 64 4 0 23 -25 41 -55 32 -53 57 -73 78 -60 19 12 10 45
-30 107 l-40 62 31 28 c33 30 35 61 5 66 -12 3 -36 -14 -67 -44 l-49 -48 0 81
c0 97 -5 113 -35 113 -13 0 -26 -7 -29 -16z"/>
<path d="M9793 1114 l-20 -27 -21 24 c-17 18 -25 20 -34 11 -14 -14 -3 -28 27
-34 17 -3 20 -10 17 -46 -3 -33 0 -42 12 -42 9 0 16 8 16 18 0 9 9 37 21 61
23 52 11 76 -18 35z"/>
<path d="M7294 1061 c-41 -25 -58 -69 -52 -133 4 -42 11 -57 36 -79 38 -34 91
-45 143 -30 60 18 91 81 40 81 -10 0 -26 -9 -36 -20 -25 -28 -79 -27 -99 2
-29 42 -22 48 58 48 97 0 106 4 106 47 0 26 -8 43 -34 69 -29 29 -41 34 -82
34 -30 0 -61 -7 -80 -19z m103 -36 c11 -8 23 -24 26 -35 5 -18 1 -20 -54 -20
-65 0 -76 13 -39 50 24 24 38 25 67 5z"/>
<path d="M7553 1069 c-30 -16 -48 -61 -34 -88 14 -25 37 -38 102 -57 43 -13
50 -19 47 -37 -2 -17 -11 -23 -39 -25 -30 -2 -41 2 -57 23 -23 29 -55 30 -60
2 -9 -44 75 -86 143 -73 68 13 105 75 72 120 -7 9 -42 27 -77 40 -50 17 -65
26 -65 41 0 29 48 32 73 5 21 -22 62 -25 69 -4 2 6 -5 21 -15 34 -15 19 -31
24 -78 27 -32 1 -69 -2 -81 -8z"/>
<path d="M7776 1065 c-3 -9 -6 -63 -6 -119 0 -114 13 -151 47 -130 16 10 18
26 18 135 l0 124 -26 3 c-17 2 -29 -3 -33 -13z"/>
<path d="M7910 1052 c-77 -78 -33 -232 67 -232 21 0 49 7 61 16 21 15 22 14
22 -15 0 -62 -66 -82 -116 -36 -33 31 -59 29 -59 -4 0 -59 133 -91 199 -48 40
27 47 57 44 206 -3 125 -5 136 -22 139 -11 3 -25 -4 -32 -13 -12 -16 -14 -16
-36 -1 -37 26 -95 21 -128 -12z m135 -42 c41 -45 13 -140 -42 -140 -55 0 -84
85 -47 138 19 28 64 29 89 2z"/>
<path d="M8176 1064 c-3 -9 -6 -62 -6 -118 0 -114 13 -151 47 -130 14 9 19 28
23 98 4 72 9 90 24 102 11 8 27 14 36 14 31 0 40 -23 40 -105 0 -92 15 -128
47 -109 15 9 18 27 21 113 3 96 2 102 -22 126 -30 29 -89 34 -124 9 -20 -14
-23 -14 -28 0 -8 21 -50 21 -58 0z"/>
<path d="M8499 1065 c-58 -31 -74 -151 -28 -209 25 -31 85 -51 132 -42 44 8
87 41 87 67 0 25 -28 24 -60 -1 -45 -35 -100 -22 -115 28 -6 22 -5 22 74 22
108 0 129 24 89 102 -22 44 -125 63 -179 33z m119 -53 c25 -33 15 -42 -48 -42
-67 0 -73 8 -35 46 27 27 59 26 83 -4z"/>
<path d="M9386 1064 c-3 -8 14 -67 39 -130 36 -92 43 -119 35 -139 -9 -24 -18
-29 -51 -26 -23 2 -40 -21 -29 -39 6 -10 25 -15 56 -14 60 1 70 14 118 138 79
204 84 226 46 226 -25 0 -34 -15 -65 -109 l-28 -85 -35 97 c-30 84 -37 97 -57
97 -13 0 -26 -7 -29 -16z"/>
<path d="M10584 1067 c-2 -7 -3 -64 -2 -127 3 -96 6 -114 21 -124 30 -18 47
17 47 99 0 88 13 110 64 107 40 -3 57 17 36 43 -16 20 -74 19 -91 -1 -11 -14
-13 -14 -21 0 -11 19 -47 21 -54 3z"/>
<path d="M10809 1065 c-58 -31 -74 -151 -28 -209 25 -31 85 -51 132 -42 44 8
87 41 87 67 0 25 -28 24 -60 -1 -45 -35 -100 -22 -115 28 -6 22 -5 22 74 22
108 0 129 24 89 102 -22 44 -125 63 -179 33z m119 -53 c25 -33 15 -42 -48 -42
-67 0 -73 8 -35 46 27 27 59 26 83 -4z"/>
<path d="M11084 1061 c-41 -25 -58 -69 -52 -133 4 -42 11 -57 36 -79 38 -34
91 -45 143 -30 60 18 91 81 40 81 -10 0 -26 -9 -36 -20 -25 -28 -79 -27 -99 2
-29 42 -22 48 58 48 97 0 106 4 106 47 0 26 -8 43 -34 69 -29 29 -41 34 -82
34 -30 0 -61 -7 -80 -19z m103 -36 c11 -8 23 -24 26 -35 5 -18 1 -20 -54 -20
-65 0 -76 13 -39 50 24 24 38 25 67 5z"/>
<path d="M11317 1073 c-4 -3 -7 -84 -7 -179 0 -149 2 -173 16 -178 30 -11 44
13 44 75 l0 59 33 -20 c39 -24 59 -25 102 -4 79 37 87 186 14 238 -30 21 -88
21 -118 0 -22 -16 -24 -16 -33 0 -9 16 -39 22 -51 9z m167 -65 c25 -35 20 -94
-9 -123 -29 -30 -35 -31 -69 -4 -52 41 -27 149 34 149 18 0 34 -8 44 -22z"/>
<path d="M11606 1065 c-3 -9 -6 -65 -6 -125 0 -86 3 -110 16 -121 11 -9 20
-10 32 -2 14 9 17 29 17 134 l0 124 -26 3 c-17 2 -29 -3 -33 -13z"/>
<path d="M12168 1064 c-37 -19 -58 -63 -58 -118 0 -81 32 -120 107 -132 69
-11 156 47 139 91 -8 22 -43 19 -56 -5 -28 -52 -93 -50 -116 5 -36 88 49 170
104 100 37 -47 77 -25 56 30 -16 41 -122 59 -176 29z"/>
<path d="M12439 1065 c-56 -30 -76 -132 -39 -193 49 -80 191 -78 228 4 17 37
15 125 -4 152 -34 49 -128 68 -185 37z m121 -62 c39 -50 7 -143 -48 -143 -32
0 -62 41 -62 85 0 81 65 115 110 58z"/>
<path d="M12676 1064 c-3 -9 -6 -62 -6 -118 0 -114 13 -151 47 -130 14 9 19
28 23 96 5 87 18 118 49 118 33 0 41 -22 41 -111 0 -67 4 -90 16 -100 11 -9
20 -10 32 -2 13 8 18 29 20 94 3 90 19 122 56 117 19 -3 21 -12 26 -100 5
-100 14 -122 46 -116 17 3 19 15 22 115 2 102 1 114 -18 133 -25 25 -86 27
-118 4 -21 -15 -25 -15 -41 0 -22 20 -80 21 -109 0 -20 -14 -23 -14 -28 0 -8
21 -50 21 -58 0z"/>
<path d="M10219 957 c-83 -42 -213 -63 -313 -50 -45 5 -83 8 -86 6 -9 -8 35
-75 61 -94 71 -50 223 -45 312 11 46 29 92 102 85 137 -3 16 -8 15 -59 -10z"/>
<path d="M12008 879 c-37 -21 -9 -77 32 -64 25 8 28 60 4 69 -19 7 -15 8 -36
-5z"/>
</g>
</svg>
